<?xml version="1.0" encoding="UTF-8"?>
<svg width="414px" height="301px" viewBox="0 0 414 301" version="1.1" xmlns="http://www.w3.org/2000/svg" xmlns:xlink="http://www.w3.org/1999/xlink">
    <!-- Generator: Sketch 54.1 (76490) - https://sketchapp.com -->
    <title>Background</title>
    <desc>Created with Sketch.</desc>
    <defs>
        <path d="M279.756962,304 C279.917937,302.021268 280,300.020217 280,298 C280,257.683213 247.316787,225 207,225 C166.683213,225 134,257.683213 134,298 C134,300.020217 134.082063,302.021268 134.243038,304 L0,304 L0,0 L423,0 L423,304 L279.756962,304 Z" id="path-1"></path>
        <polygon id="path-3" points="0 0.153722967 60.7013286 0.153722967 60.7013286 49.2882862 0 49.2882862"></polygon>
        <polygon id="path-5" points="0.178458026 0.00745665526 27.4302551 0.00745665526 27.4302551 17.8228558 0.178458026 17.8228558"></polygon>
        <polygon id="path-7" points="9.78571584e-05 0.962214789 8.22389698 0.471302182 11.0853812 17.1772715 9.78571584e-05 10.477171"></polygon>
        <polygon id="path-9" points="1.773661 -2.1465086e-12 7.09464398 -2.1465086e-12 7.09464398 8.04711439 0.727643206 7.99374294"></polygon>
        <polygon id="path-11" points="0.256594371 0.308882437 15.4050878 0.308882437 15.4050878 14.6714102 0.256594371 14.6714102"></polygon>
        <polygon id="path-13" points="0 0.359884117 13.911633 0.359884117 13.911633 13.0559076 0 13.0559076"></polygon>
        <polygon id="path-15" points="0.245658369 0.0688097757 59.10156 0.0688097757 59.10156 40.951349 0.245658369 40.951349"></polygon>
        <polygon id="path-17" points="0 0.426287826 16.6208801 0.426287826 16.6208801 15.4649072 0 15.4649072"></polygon>
        <polygon id="path-19" points="0.139719836 0.282662431 14.7708535 0.282662431 14.7708535 37.2120104 0.139719836 37.2120104"></polygon>
        <polygon id="path-21" points="0.429396309 0.282662431 11.3613 0.282662431 11.3613 37.2120104 0.429396309 37.2120104"></polygon>
        <polygon id="path-23" points="0.445625382 0.282662431 15.0767591 0.282662431 15.0767591 37.2120104 0.445625382 37.2120104"></polygon>
        <polygon id="path-25" points="0.359686198 0.282662431 11.2915899 0.282662431 11.2915899 37.2120104 0.359686198 37.2120104"></polygon>
    </defs>
    <g id="Page-1" stroke="none" stroke-width="1" fill="none" fill-rule="evenodd">
        <g id="16_Screen_Setting">
            <g id="Background" transform="translate(0.000000, -3.000000)">
                <mask id="mask-2" fill="white">
                    <use xlink:href="#path-1"></use>
                </mask>
                <use id="Combined-Shape" fill="#FFFFFF" xlink:href="#path-1"></use>
                <g mask="url(#mask-2)">
                    <g transform="translate(-26.000000, -73.000000)">
                        <g id="Group-12" stroke="none" stroke-width="1" fill-rule="evenodd">
                            <path d="M237.165794,243.207949 L240.921739,245.081441 L240.921739,154.92876 L281.386957,154.92876 L281.386957,265.265778 L281.578681,265.361411 L285.334783,265.361411 L285.334783,143.087071 L325.8,143.087071 L325.8,231.080366 L332.247981,231.080366 L332.247981,204.161574 L352.498545,204.161574 L352.498545,192.573371 L350.064325,192.573371 L350.064325,191.409274 L354.200856,191.409274 L354.200856,172.705298 L354.994894,172.705298 L354.994894,191.409274 L358.171044,191.409274 L358.171044,187.765914 L359.229627,187.765914 L359.229627,191.409274 L369.159306,191.409274 L369.159306,192.573371 L366.915879,192.573371 L366.915879,204.161574 L370.695274,204.161574 L370.695274,239.449142 L374.16087,239.449142 L374.16087,203.48568 L393.458141,203.48568 L393.458141,146.53002 L396.045259,146.53002 L396.045259,115.159024 L408.490445,115.159024 L408.490445,103.215559 L415.200245,103.215559 L415.200245,93.1829036 L417.55515,93.1829036 L417.55515,75.9841689 L418.163461,75.9841689 L418.163461,93.1829036 L420.518366,93.1829036 L420.518366,103.215559 L427.228166,103.215559 L427.228166,115.159024 L439.769674,115.159024 L439.769674,146.53002 L442.26087,146.53002 L442.26087,268.411609 L441.669162,268.411609 L442.26087,301.963061 L439.389347,301.963061 L410.287729,301.963061 L401.902435,301.963061 L370.695274,301.963061 L363.702452,301.963061 L343.949314,301.963061 L332.247981,301.963061 L281.578681,301.963061 L268.97589,301.963061 L258.321115,301.963061 L236.692509,301.963061 L223.794709,301.963061 L220.136765,301.963061 L195.927235,301.963061 L189.736468,301.963061 L175.91837,301.963061 L164.673979,301.963061 L127.787104,301.963061 L110.634128,301.963061 L105.784527,301.963061 L96.7266459,301.963061 L69.7722557,301.963061 L50.3369727,301.963061 L45.3755403,301.963061 L32.5995914,301.963061 L24.7782609,301.963061 L24.7782609,279.266491 L24.7782609,148.021108 L31.6869565,148.021108 L31.6869565,143.087071 L44.5173913,143.087071 L44.5173913,126.677354 L50.9127413,126.677354 L50.9127413,64.0322275 L58.3743838,64.0322275 L58.3743838,22.6418658 L72.818418,22.6418658 L72.818418,0 L74.8512257,0 L74.8512257,22.6418658 L79.3271693,22.6418658 L79.3271693,4.55415274 L81.3603777,4.55415274 L81.3603777,22.6418658 L104.208527,22.6418658 L104.208527,47.2523218 L108.355487,47.2523218 L108.355487,64.0322275 L119.964089,64.0322275 L119.964089,126.677354 L124.46087,126.677354 L124.46087,185.723147 L136.849445,185.723147 L136.849445,128.767487 L139.436564,128.767487 L139.436564,97.3964915 L151.881749,97.3964915 L151.881749,85.4530262 L158.59155,85.4530262 L158.59155,75.4203706 L160.946455,75.4203706 L160.946455,58.2216359 L161.554765,58.2216359 L161.554765,75.4203706 L163.90967,75.4203706 L163.90967,85.4530262 L170.619471,85.4530262 L170.619471,97.3964915 L183.160979,97.3964915 L183.160979,128.767487 L185.652174,128.767487 L185.652174,137.166227 L239.934783,137.166227 L239.934783,138.562686 L237.165794,138.562686 L237.165794,243.207949 Z" id="Combined-Shape" fill="#02B5FB" opacity="0.100000001"></path>
                            <g id="Group-166" transform="translate(0.971383, 299.682664)" fill="#05B0F2" opacity="0.200000003">
                                <g id="Group-165" transform="translate(0.015573, 0.267204)">
                                    <polygon id="Fill-125" points="0.935096435 69.3865676 451.728161 69.3865676 451.728161 0 0.935096435 0"></polygon>
                                </g>
                            </g>
                        </g>
                        <g id="Group-7" stroke="none" stroke-width="1" fill-rule="evenodd" transform="translate(166.795652, 150.941953)">
                            <g id="Group-5">
                                <path d="M34.7582547,29.889231 C37.6086384,31.4203703 39.0338302,32.5441666 39.0338302,33.2606199 C39.0338302,33.9770732 37.9761209,34.7048976 35.8607024,35.4440929 L34.7582547,34.8972378 L34.7582547,29.889231 Z" id="Path-11" fill="#E4A78A"></path>
                                <path d="M30.1705958,25.2995987 C29.8294594,25.7807489 28.095827,34.6599598 28.5939148,35.1143392 C29.0920027,35.5701657 33.132606,35.5419479 33.6686775,35.100592 C34.2040324,34.6592362 35.8022135,25.4377937 35.3815264,25.2670396 C34.9608392,25.0962856 30.5117322,24.8184485 30.1705958,25.2995987" id="Fill-8" fill="#474747" transform="translate(31.977958, 30.237454) scale(-1, 1) translate(-31.977958, -30.237454) "></path>
                                <g id="Group-46" transform="translate(0.000000, 12.978941)">
                                    <path d="M39.579626,66.9507794 C39.579626,66.9507794 40.7592826,113.351394 31.0915913,141.78283 L25.7353775,141.78283 L28.2582664,76.9604073 C28.2582664,76.9604073 22.6310182,118.194296 14.0641805,141.78283 L8.68169901,141.78283 L16.7148257,66.9507794 L39.579626,66.9507794 Z" id="Fill-1" fill="#0444A8"></path>
                                    <path d="M28.2583858,76.9610092 L31.9537674,76.6034795 C31.9537674,76.6034795 31.3639391,122.605635 28.2583858,141.783432 L25.7354969,141.783432 L28.2583858,76.9610092 Z" id="Fill-3" fill="#002B84"></path>
                                    <polygon id="Fill-5" fill="#002B84" points="21.1031958 66.9507794 12.3286048 141.78283 8.70844426 141.78283 16.7153033 66.9507794"></polygon>
                                    <path d="M19.4580048,17.2122581 C19.3803958,16.9763126 18.2867061,13.27582 18.0526852,10.8357098 C17.8174703,8.39559971 17.5834493,5.01050366 22.5026649,3.82957221 C27.4218804,2.64864076 29.2212148,1.53512233 31.9984224,0.703293957 C36.6442155,-0.687099337 38.5307108,4.87447384 34.548773,7.48311649 L32.4975079,13.9054093 L22.7378798,17.9995458 L19.4580048,17.2122581 Z" id="Fill-7" fill="#262626"></path>
                                    <path d="M33.1217229,7.48299611 L33.5396174,12.8760368 C33.5396174,12.8760368 34.566444,10.62372 34.3933162,6.98943659 L33.1217229,7.48299611" id="Fill-9" fill="#262626"></path>
                                    <g id="Group-13" transform="translate(0.000000, 17.662734)">
                                        <mask id="mask-4" fill="white">
                                            <use xlink:href="#path-3"></use>
                                        </mask>
                                        <g id="Clip-12"></g>
                                        <path d="M22.3660731,8.89104104 L21.7034117,6.76271607 L19.3273829,10.5161761 C19.3273829,10.5161761 13.8840082,11.5261674 12.5777893,12.6228326 C11.2703765,13.7207016 0.278556549,33.2608435 0.00394014836,34.1384164 C-0.270676252,35.0171931 12.5777893,46.2137715 12.5777893,46.2137715 L16.0618357,41.8234993 L10.1826567,32.1629745 L16.49764,22.941838 C16.49764,22.941838 19.1100777,42.2616839 16.7149451,49.2882862 L39.5797454,49.2882862 C39.5797454,49.2882862 39.2408566,29.523033 37.9203099,22.941838 C37.9203099,19.0924596 56.3651564,22.3983298 56.3651564,20.8157604 C56.3651564,17.747346 41.817066,5.81362535 39.5797454,2.61894473 C39.2206215,2.10614998 37.9809405,2.90524554 35.8607024,5.01623142 L45.8727796,16.354263 C45.8727796,16.354263 39.0305126,16.4798197 36.6879153,14.0084106 C34.4491947,11.6429363 31.6087059,11.8186917 31.6087059,11.8186917 L29.0511914,7.54278088 L29.0511914,10.1947605 L27.7581064,14.2696361 L22.3660731,8.89104104 Z" id="Fill-11" fill="#F0F1F5" mask="url(#mask-4)"></path>
                                    </g>
                                    <path d="M19.3279799,28.1792711 C19.3279799,28.1792711 18.5363683,30.6169737 19.3279799,31.5113998 C20.1207855,32.4046222 23.5546845,32.9631871 23.5546845,32.9631871 C23.5546845,32.9631871 19.8258713,33.2978446 18.9769485,32.9631871 C18.1256376,32.6273259 18.4742811,29.5299389 19.3279799,28.1792711" id="Fill-14" fill="#D2D3D7"></path>
                                    <g id="Group-33" transform="translate(0.886830, 15.633021)">
                                        <polygon id="Fill-1" fill="#51578C" points="32.8648895 0 28.3785759 3.73954693 36.1915664 10.7294859 39.9073724 7.35854007"></polygon>
                                        <polygon id="Fill-2" fill="#3E3B42" points="35.876413 9.83536203 29.2654064 4.01053634 33.0614451 0.894123821 39.0205419 7.02633321"></polygon>
                                        <g id="Group-32" transform="translate(0.000000, 2.682371)">
                                            <path d="M41.0306561,7.33492059 C41.0306561,7.33492059 39.8726665,7.07183449 40.2207068,5.79005457 C40.5687471,4.50808346 40.0354753,4.21039083 40.0354753,4.21039083 L35.9794897,7.81099934 C35.9794897,7.81099934 37.9326099,9.56866683 38.5274956,9.64113022 C39.1223813,9.71359361 41.6259317,8.03756695 41.0306561,7.33492059" id="Fill-3" fill="#E3A080"></path>
                                            <path d="M35.9794507,7.81103758 C35.9794507,7.81103758 33.52952,6.34532683 33.2988579,6.12678948 C33.0683909,5.90844331 31.9735751,4.93219506 31.5260947,4.35535586 C31.0784193,3.77794307 32.9956632,3.73683587 33.5129466,4.33661862 C34.030425,4.93640138 34.5861196,5.04729523 34.9462487,5.18094144 C35.3063778,5.31458764 37.2688571,5.69430347 37.6974244,6.28605598 C38.1257967,6.87799969 35.9794507,7.81103758 35.9794507,7.81103758" id="Fill-5" fill="#E3A080"></path>
                                            <path d="M39.2792627,3.4280921 C39.2792627,3.4280921 38.9844521,3.78276121 38.7516453,3.36939484 C38.5188385,2.95602846 38.5420412,2.00712128 39.1379018,2.23827759 C39.7343473,2.46924271 39.2792627,3.4280921 39.2792627,3.4280921" id="Fill-7" fill="#E3A080"></path>
                                            <path d="M38.5286655,2.1677644 C38.5286655,2.1677644 38.4225961,2.86907239 38.0533029,2.55168655 C37.6840097,2.2346831 37.3184212,1.05748755 37.9640018,1.09037332 C38.6091925,1.12325908 38.5286655,2.1677644 38.5286655,2.1677644" id="Fill-9" fill="#E3A080"></path>
                                            <path d="M37.4774083,1.13970196 C37.4774083,1.13970196 37.4752635,1.98670152 37.0468913,1.74101429 C36.7243934,1.55574508 36.267164,0.0294251088 36.9125496,0.0623108705 C37.5579353,0.0951966322 37.4774083,1.13970196 37.4774083,1.13970196" id="Fill-11" fill="#E3A080"></path>
                                            <g id="Group-15" transform="translate(29.442064, 6.118281)">
                                                <mask id="mask-6" fill="white">
                                                    <use xlink:href="#path-5"></use>
                                                </mask>
                                                <g id="Clip-14"></g>
                                                <path d="M8.02391798,3.30597503 L11.7718343,0.00745665526 L26.838957,12.2512846 C29.1192547,13.7888852 24.1991152,18.2733941 22.3347111,17.7860348 C17.2246606,16.4507199 5.70561245,17.4510591 3.91879728,13.6491207 C2.30559215,10.2165852 1.44293413,3.26811816 3.65810827,3.92334785 C5.87347739,4.57838633 14.0246397,8.84493152 14.0246397,8.84493152 L8.02391798,3.30597503 Z" id="Fill-13" fill="#323657" mask="url(#mask-6)"></path>
                                            </g>
                                            <path d="M5.25667588,66.1456945 C5.25667588,66.1456945 5.55616602,62.1345875 6.65000696,61.5275393 C7.7438479,60.9202999 7.09787731,62.1529424 7.09787731,62.1529424 C7.09787731,62.1529424 6.44410749,65.0575964 6.29163269,66.2357479 C6.28422343,66.2929156 5.25667588,66.1456945 5.25667588,66.1456945" id="Fill-16" fill="#B57343"></path>
                                            <polygon id="Fill-18" fill="#B57343" points="16.0639998 68.9770438 1.64928206 64.7359278 1.42329959 82.2200636 15.7003611 90.8992279"></polygon>
                                            <polygon id="Fill-20" fill="#B57343" points="15.7003221 90.8992662 13.8815434 91.2005915 9.74902798e-05 82.4485814 0.445043127 64.7990608 1.64943804 64.735966"></polygon>
                                            <path d="M30.2164688,8.95896098 C30.2164688,8.95896098 32.0340776,13.1469245 33.3981615,22.5063652 C33.9222693,26.1016202 34.8936624,32.1533652 35.5991021,38.3295789 L35.5991021,38.331682 C36.1557716,43.2003043 37.4262649,48.1972193 37.8298747,51.9240174 C38.247913,55.7852265 39.5078774,67.1602585 39.5078774,67.1602585 L42.5645876,65.2706655 C43.0009541,64.8748892 43.6126081,64.3611448 43.4353708,63.8049548 C42.5950046,61.1435025 40.98622,52.3459876 40.0360797,44.6778693 C40.0360797,44.6719422 40.0341299,44.6681182 40.0341299,44.662 C39.9892844,44.2922263 39.9446338,43.9262766 39.9015431,43.5622389 C39.8995933,43.5442665 39.8974485,43.524382 39.8954987,43.5043064 C39.7161166,41.970721 39.5671515,40.5011863 39.461082,39.1555468 C39.3795802,38.1238517 39.4528929,37.116056 39.5977634,36.1300568 C40.0237959,29.2471816 40.2351549,21.9909 40.2351549,21.9909 C40.4595775,19.0197097 40.5876797,16.2443044 40.6732762,13.6570362 C39.9391744,13.3530341 39.0547426,12.6985692 38.287884,12.3406497 C36.8422982,11.666874 35.1122356,10.9062952 33.4872677,10.1703807 C32.7124149,9.8185795 31.8166742,9.65128274 31.1989758,9.37309214 L30.2164688,8.95896098 Z" id="Fill-22" fill="#323657"></path>
                                            <path d="M11.7757729,36.8030486 C11.5388715,39.9260488 12.8861872,57.2061782 11.5417962,57.4488062 C10.1974053,57.6908607 5.25659789,56.6262798 5.25659789,56.6262798 C5.25659789,56.6262798 4.63714466,37.9920983 4.83543988,36.0384546 C4.97992048,34.6165278 7.28829532,13.2899202 8.5071188,12.433552 C9.21099862,11.9381624 14.4269236,10.1252392 16.9864334,9.13598963 C17.4543867,8.95492674 18.935849,8.34462819 19.3548622,8.18899441 C19.8978831,8.78132051 24.6271366,19.6642133 25.0769567,28.1525637 C25.2136381,30.7365815 24.5963296,36.1917941 24.1266215,40.6489619 C23.6253264,45.4038224 23.0704118,49.1153248 22.6636823,53.091634 C21.8619223,60.9262843 21.3013532,67.1602393 21.3013532,67.1602393 L13.349851,63.6888795 C12.0635642,63.0573582 10.2816369,60.4676045 10.7651887,59.1389814 C12.6034654,54.0902522 14.9182746,45.4644317 14.9208093,41.0344137 C14.9208093,41.0344137 14.0338428,30.1861274 13.3309378,27.8015273 C13.3309378,27.8015273 12.0768229,32.8326665 11.7757729,36.8030486" id="Fill-24" fill="#323657"></path>
                                            <path d="M10.2941741,57.244991 C10.2941741,57.244991 10.6872549,58.986598 11.2164322,60.7299258 C11.7459994,62.4730623 12.2496342,63.033841 12.0113679,64.0246202 C11.8315958,64.7725801 10.9567181,65.3230342 10.7420445,65.0792589 C10.5271759,64.8352925 10.466147,61.9162987 9.2332849,61.9113276 C8.00003286,61.9065477 9.5462287,65.5299086 8.81661144,65.2547771 C8.08699419,64.9798369 5.28531853,63.4208223 5.48556356,61.9524348 C5.6858086,60.4844297 6.83209931,59.438586 6.79329818,57.2409759 C6.75781171,55.2467986 7.40378231,54.4236986 7.40378231,54.4236986 L10.2941741,57.244991 Z" id="Fill-26" fill="#EEA886"></path>
                                            <path d="M9.35698057,61.7907592 C9.35698057,61.7907592 10.9920875,62.2261132 10.8111456,67.6704275 L8.95688046,67.3385108 C8.95688046,67.3385108 9.03701747,64.3292724 8.50725529,62.6813516 C8.50725529,62.6813516 8.61819923,61.617153 9.35698057,61.7907592" id="Fill-28" fill="#B57343"></path>
                                            <path d="M11.985026,45.5390747 L11.9035242,59.2715569 C11.9035242,59.2715569 9.10867282,59.1499561 5.25663689,57.7551792 L4.98931854,38.3892895 L11.985026,45.5390747 Z" id="Fill-30" fill="#323657"></path>
                                        </g>
                                    </g>
                                    <path d="M27.7581064,31.93237 L26.6787445,34.8034419 L28.5843436,36.1011423 C28.5843436,36.1011423 27.4667742,49.6415265 27.8022838,51.1474849 C28.1365994,52.6534434 30.8111244,54.2737632 31.4582639,54.0943964 C31.7507901,54.0125378 33.6492252,52.7040031 33.5978838,50.834496 C33.5465425,48.9649888 29.3568514,35.8423245 29.3568514,35.8423245 C29.3568514,35.8423245 30.1317473,34.906969 30.001603,34.5434203 C29.8726527,34.1810753 27.7581064,31.93237 27.7581064,31.93237" id="Fill-22" fill="#48A5F5"></path>
                                    <path d="M33.1595722,7.48299611 C33.4831419,12.046616 34.6377248,18.9119086 32.5363124,21.1943205 C30.4337059,23.4755285 29.051072,23.2937541 29.051072,23.2937541 L29.051072,27.857374 L27.757987,31.9322496 L21.9385073,28.1836048 L21.4095722,19.7076229 C21.4095722,19.7076229 20.0818616,21.1485759 18.219246,18.2413899 C16.6658724,15.8145216 19.0275734,13.6765662 19.9982827,14.4915414 C20.967798,15.3077203 20.9092927,17.2301948 21.5552383,16.4152197 C21.7916472,16.1178802 21.6376232,14.4072751 21.956417,13.1974524 C24.2990143,11.6228771 24.0637994,9.02506868 24.0637994,9.02506868 C24.0637994,9.02506868 26.3407276,10.6152934 29.7770145,9.55714992 C31.9154405,8.89866929 28.7251143,7.46132765 28.8898842,7.48299611 C28.8898842,7.48299611 30.5435525,8.05359908 33.1595722,7.48299611" id="Fill-28" fill="#E4A78A"></path>
                                    <path d="M27.6963774,20.2793093 L30.9189412,19.7075025 C30.9189412,19.7075025 30.7135758,20.5862792 29.5792907,20.8137981 C28.4450056,21.0401132 27.6963774,20.2793093 27.6963774,20.2793093" id="Fill-30" fill="#FFFFFF"></path>
                                    <path d="M29.0511914,23.2935134 C26.0160832,23.4897334 23.975564,21.627449 23.0908216,20.1154716 C21.9398206,18.1484563 22.2383167,20.7920093 23.437077,22.0993401 C25.4023753,24.2433145 29.0511914,24.4250889 29.0511914,24.4250889 L29.0511914,23.2935134" id="Fill-32" fill="#CD7D5A"></path>
                                    <polygon id="Fill-34" fill="#032878" points="25.7357357 141.78295 25.709468 148.420724 28.7959176 148.420724 28.7959176 146.47297 32.5354766 148.420724 41.6157276 148.420724 41.6766208 146.232209 33.7676684 143.54893 31.0919495 141.78295"></polygon>
                                    <polygon id="Fill-36" fill="#032878" points="8.70856366 141.78295 8.682296 148.420724 11.7687456 148.420724 11.7687456 146.47297 15.5083045 148.420724 24.5885555 148.420724 24.6494487 146.232209 16.7404964 143.54893 14.0635835 141.78295"></polygon>
                                    <path d="M28.5842242,36.1016238 C28.5842242,36.1016238 28.138868,41.5042949 27.8941012,45.8644719 L28.5842242,36.1016238 Z" id="Fill-38" fill="#198BE4"></path>
                                    <path d="M32.1859974,53.5949383 C31.4218474,54.0415495 29.9472767,53.0929521 29.2428259,51.7615452 C28.2064475,49.7993452 27.8912356,45.9399504 27.8936236,45.8797603 C27.7527335,48.4149709 27.6787064,50.5950594 27.8016868,51.1476053 C28.1360024,52.6535638 30.8105274,54.2738836 31.4576669,54.0945168 C31.5591556,54.0656255 31.8516817,53.885055 32.1859974,53.5949383" id="Fill-40" fill="#198BE4"></path>
                                    <path d="M26.6789833,34.8036826 L28.5845824,36.101383 C28.5845824,36.101383 29.1994843,35.8148777 27.7392414,34.1885389 C27.1852327,33.5721914 27.7583452,31.9326108 27.7583452,31.9326108 L26.6789833,34.8036826 Z" id="Fill-42" fill="#198BE4"></path>
                                </g>
                                <g id="Group-2" transform="translate(36.780208, 0.000000)">
                                    <path d="M0,7.88007146 C0,3.52831917 3.49871348,0 7.81545692,0 C12.131526,0 15.6315882,3.52831917 15.6315882,7.88007146 C15.6315882,12.2318238 12.131526,15.7601429 7.81545692,15.7601429 C3.49871348,15.7601429 0,12.2318238 0,7.88007146" id="Fill-42" fill="#E95743"></path>
                                    <path d="M6.43653633,14.8330757 L7.62007306,17.4777071 C7.70123973,17.6598008 7.92977284,17.6598008 8.01093952,17.4777071 L9.1950519,14.8330757 L6.43653633,14.8330757 Z" id="Fill-44" fill="#E95743"></path>
                                    <path d="M10.3971904,10.6418072 C10.1396113,10.4341684 9.86503458,10.24749 9.59372664,10.0575366 C9.05372579,9.67762967 8.56014148,9.64815414 8.15742897,10.2592803 C7.93123007,10.6025065 7.61415935,10.6175718 7.28270604,10.466919 C6.37006538,10.0522965 5.6653185,9.41300486 5.25214594,8.48354294 C5.06974855,8.07219545 5.07170982,7.70276873 5.49926497,7.41194344 C5.72546387,7.25801564 5.95362404,7.07592232 5.93531893,6.73990121 C5.91178378,6.30169823 4.84943344,4.83643657 4.42906957,4.68185375 C4.255171,4.61766258 4.08323368,4.62224767 3.90606633,4.68119874 C2.92216647,5.01263477 2.51487769,5.82353953 2.90516886,6.78313199 C4.06950484,9.64684411 6.11837006,11.6400454 8.93866508,12.8570575 C9.09948857,12.9264888 9.27796343,12.9539993 9.36883525,12.9788898 C10.010168,12.9854399 10.7626389,12.3657986 10.980339,11.7500874 C11.1888865,11.1586116 10.7469488,10.9241174 10.3971904,10.6418072" id="Fill-46" fill="#FFFFFF"></path>
                                    <path d="M7.82053534,4.19473456 C10.1072695,4.53554678 11.1614583,5.5896052 11.452919,7.82139823 C11.479745,8.02799368 11.3999921,8.33788685 11.7037782,8.3435085 C12.0213399,8.34983285 11.9444871,8.04415591 11.9473872,7.83756046 C11.9742132,5.73506526 10.0826186,3.7864626 7.88651277,3.71408392 C7.72048166,3.73727321 7.37826906,3.60375914 7.35651826,3.96354442 C7.34274276,4.20668056 7.63057835,4.16662634 7.82053534,4.19473456" id="Fill-48" fill="#FFFFFF"></path>
                                    <path d="M8.0254108,4.67872519 C7.76558156,4.6489769 7.42370097,4.53081007 7.36301717,4.87869982 C7.29976926,5.24394274 7.68096611,5.20675738 7.92626543,5.25964323 C9.59122389,5.61910176 10.1707115,6.20497785 10.4450707,7.80146953 C10.4852416,8.03449781 10.4057544,8.39726171 10.8151564,8.33693879 C11.1177207,8.29231635 11.0083189,7.98161196 11.03396,7.79981684 C11.0476352,6.26695345 9.68865986,4.87208909 8.0254108,4.67872519" id="Fill-50" fill="#FFFFFF"></path>
                                    <path d="M8.16752208,5.79866608 C8.00964902,5.80475876 7.85561345,5.83013902 7.79664506,6.07662436 C7.70858875,6.44351341 7.8911016,6.53043875 8.07761876,6.5730823 C8.69855804,6.71787822 9.02375814,7.25167964 9.08437179,8.15624175 C9.10005853,8.40139479 9.20607206,8.59976778 9.36867046,8.57095943 C9.59428342,8.53176825 9.61527023,8.23884166 9.6090014,7.96074412 C9.62255418,6.94474053 8.83867627,5.77305547 8.16752208,5.79866608" id="Fill-52" fill="#FFFFFF" transform="translate(8.691870, 7.186000) rotate(-20.000000) translate(-8.691870, -7.186000) "></path>
                                </g>
                            </g>
                            <g id="Group-11" transform="translate(18.623440, 35.764953)">
                                <g id="Group-5" transform="translate(0.000000, 0.756566)">
                                    <mask id="mask-8" fill="white">
                                        <use xlink:href="#path-7"></use>
                                    </mask>
                                    <g id="Clip-4"></g>
                                    <path d="M2.99591065,1.0861086 C2.99591065,1.0861086 7.53746632,6.97734544 9.0726005,8.25190748 L4.14442351,12.9909653 L9.78571584e-05,2.79096165 L2.99591065,1.0861086 Z" id="Fill-3" fill="#EAE6F2" mask="url(#mask-8)"></path>
                                </g>
                                <g id="Group-10" transform="translate(12.116584, 7.587967) rotate(8.000000) translate(-12.116584, -7.587967) translate(8.116584, 3.087967)">
                                    <mask id="mask-10" fill="white">
                                        <use xlink:href="#path-9"></use>
                                    </mask>
                                    <g id="Clip-9"></g>
                                    <polygon id="Fill-8" fill="#EAE6F2" mask="url(#mask-10)" points="1.773661 -1.40985069e-11 4.29000038 1.41078885 7.09464398 8.04711439 1.20037301 6.4702832"></polygon>
                                </g>
                            </g>
                        </g>
                        <g id="Group-6" stroke="none" stroke-width="1" fill-rule="evenodd" transform="translate(42.439130, 183.506596)">
                            <g id="Group-111" transform="translate(0.000000, 11.610475)">
                                <path d="M21.4190121,27.8040198 C21.4190121,27.8040198 4.69826399,25.1418677 20.3631548,69.1553401 L45.1798113,69.1553401 C45.1798113,69.1553401 38.4917126,25.8521456 21.4190121,27.8040198" id="Fill-8" fill="#9EDFE9"></path>
                                <path d="M55.7761361,56.9291059 L53.0412351,56.8138437 C46.4774729,56.5383267 41.2277666,62.2503769 41.9993546,68.82841 L49.3502469,116.319464 L52.5183201,116.319464 L51.6996045,75.4332366 C51.752247,74.1562529 52.7935649,73.1482143 54.0609947,73.1482143 C55.1960663,73.1482143 56.1707038,73.9616216 56.3827777,75.086439 L65.7185412,116.851793 L68.1827095,116.851793 L57.0736473,70.3086192 L59.7007565,62.7680456 C60.6703804,59.9865871 58.6975417,57.0514456 55.7761361,56.9291059" id="Fill-10" fill="#38173E"></path>
                                <path d="M52.150625,76.4317711 L33.9588963,76.4317711 C31.3107301,76.4317711 29.1629179,74.2665609 29.1629179,71.5963202 C29.1629179,68.925574 31.3107301,66.7608693 33.9588963,66.7608693 L52.150625,66.7608693 C54.7987913,66.7608693 56.9456007,68.925574 56.9456007,71.5963202 C56.9456007,74.2665609 54.7987913,76.4317711 52.150625,76.4317711" id="Fill-12" fill="#9EDFE9"></path>
                                <path d="M50.5755628,19.5663627 C50.3013206,19.0532438 50.0386097,18.5264754 49.8215222,17.9643195 C48.8418712,15.423496 48.4001759,12.7911706 48.0321801,10.1057638 C47.987058,9.7771655 47.8196048,7.55280752 47.6225717,7.48557124 C47.6225717,7.48557124 34.8941272,3.12532407 34.8936258,3.12532407 C34.5010635,3.25625787 33.9445575,4.57216783 33.7450175,4.933626 C33.3569674,5.63682644 33.0165462,6.36580921 32.7162335,7.11096914 C32.1070851,8.62201595 31.7039943,10.1558119 31.3956599,11.7543164 C30.9394253,14.1197189 30.6471343,16.5129259 30.4054804,18.9091661 C30.1818753,21.1218967 29.9778231,23.1480846 28.9806246,25.1747781 C28.4211105,26.3117283 27.3131121,27.391553 26.9721896,28.6306215 C28.6522359,28.4698611 29.7281475,27.7054908 31.0206451,26.5791568 C30.9063358,27.8950668 31.3590609,29.5613131 31.6638858,30.8615515 C32.1963266,33.1303966 33.148403,35.1854 34.3170656,37.0887427 C35.2912017,38.6746089 36.3455549,39.9389541 37.6611149,41.0703435 C38.1709947,41.5086431 38.7089505,41.9909244 39.2569334,42.3412608 C39.8189543,42.7001913 39.9317595,42.6127335 40.4546746,42.3078954 C42.4169848,41.1669009 44.5322088,39.7812269 46.065859,37.8521019 C47.8221116,35.6434156 48.9085517,33.2815518 49.944856,30.4505508 C50.3659956,29.299951 50.8352655,27.891528 50.8086936,26.5589354 C50.7896421,25.5953839 50.2607107,24.6788473 50.2381497,23.7971927 C51.1601447,24.4190019 51.8314613,24.9523423 52.4305826,26.0468275 C52.2415711,25.7015465 52.4491328,24.6308214 52.410027,24.1995993 C52.2460834,22.4039358 51.3631942,21.0399999 50.5755628,19.5663627" id="Fill-14" fill="#38173E"></path>
                                <path d="M46.9715599,34.3520747 L47.4764262,38.2947492 L48.9915262,50.147544 L52.6900347,50.147544 L51.5985812,38.2947492 L51.1027394,32.9603343 L50.8049335,29.7061997 C50.6605427,28.1643152 49.809239,26.7771247 48.5011993,25.957651 L47.587226,25.3899341 L47.0678204,32.9603343 L46.9715599,34.3520747 Z" id="Fill-16" fill="#F8644A"></path>
                                <path d="M64.4759286,96.8876749 L61.1308765,98.008448 L51.8828504,65.0561011 L51.1172787,62.337329 C51.1172787,62.337329 50.4945936,62.7291194 49.5746041,63.3185742 C48.9208349,63.7371579 48.1176614,64.2568489 47.2824011,64.8038387 C45.7617862,65.8017666 44.1343822,66.8957463 43.1076037,67.6676996 C42.4859213,68.1343092 42.0813265,68.4826235 42.0547546,68.6221514 L41.0495343,63.5066336 L38.7844047,51.9824371 L38.7573314,51.8535254 L50.8350149,51.8535254 C54.6799196,51.8535254 57.9668143,54.6526777 58.5995264,58.4816067 L64.4759286,96.8876749 Z" id="Fill-18" fill="#E4A78A"></path>
                                <path d="M47.4430358,58.0468458 L47.4430358,58.0468458 C50.4727345,58.1525028 52.2114396,60.9182897 51.956249,63.9641436 L48.9195314,107.089895 L45.7123524,107.102028 L42.8476001,63.6982317 C42.6094556,60.5219496 44.2869952,57.9371445 47.4430358,58.0468458" id="Fill-20" fill="#E4A78A"></path>
                                <path d="M64.3520935,108.565858 C63.0470619,106.189333 61.2466899,103.043889 61.0296025,97.4804663 C61.7159598,99.9242268 62.4158538,102.143529 63.1438238,103.795115 C64.1029192,105.970942 67.1386342,104.501854 66.5264776,102.156168 C65.7167865,99.0668379 63.9053846,95.7641719 63.9053846,95.7641719 L63.9299511,95.745467 C67.0142977,100.163345 68.0475939,102.330578 68.2416189,107.160468 C68.3524188,109.930805 65.6110002,110.861496 64.3520935,108.565858" id="Fill-22" fill="#38173E"></path>
                                <path d="M63.1437235,103.795368 C62.4157535,102.143277 61.7158596,99.9244796 61.0295022,97.480719 L63.9057857,95.7639191 C63.9057857,95.7639191 65.7166862,99.0665852 66.5263773,102.156421 C67.1385339,104.501602 64.1028189,105.971195 63.1437235,103.795368" id="Fill-24" fill="#E4A78A"></path>
                                <path d="M45.6628184,106.905122 C45.6628184,106.905122 47.2927291,117.922771 50.4537832,115.49721 C50.620735,116.368754 50.8754242,117.10077 51.3075937,117.655343 C52.6627609,119.387309 48.1660925,119.991424 46.4384172,119.229076 C44.7007148,118.467233 45.7214771,112.567124 45.7214771,112.567124 C45.7214771,112.567124 43.2873902,109.023317 45.6628184,106.905122" id="Fill-26" fill="#38173E"></path>
                                <path d="M50.4536328,115.49726 C47.2925787,117.922822 45.6626679,106.905172 45.6626679,106.905172 L48.7745891,106.905172 C48.9906739,107.479461 49.1676528,108.043639 49.3150517,108.597706 C49.3742118,108.795876 49.4228434,108.994046 49.4619492,109.182106 C49.5406622,109.518793 49.6193752,109.87469 49.6880611,110.241204 C50.0024117,111.834653 50.2475752,113.626778 50.4536328,115.49726" id="Fill-28" fill="#E4A78A"></path>
                                <path d="M50.2289247,60.0314787 C50.2289247,61.1896614 50.0003061,62.3053792 49.5746542,63.3184731 C49.192119,64.2516924 48.6441361,65.1045315 47.9738222,65.844636 C46.7399833,67.2060442 45.0704654,68.1721233 43.1663126,68.4986995 C42.804333,68.5634081 42.4323263,68.6058731 42.0548047,68.6220503 C39.3905951,68.9329549 37.1781078,69.0401285 35.3541721,68.9926081 C26.1532735,68.7883716 26.6110122,64.8952396 26.6110122,64.8952396 C25.4248022,58.1063979 30.4398735,51.982336 30.4398735,51.982336 L49.3144501,51.982336 L49.3244772,52.0465391 L50.1652524,58.9642924 C50.170266,59.0072629 50.1757809,59.0446726 50.1757809,59.0876431 C50.2128813,59.4041086 50.2289247,59.7205741 50.2289247,60.0314787" id="Fill-30" fill="#E4A78A"></path>
                                <path d="M50.7821719,51.8535254 C50.3404766,51.8752635 49.8461389,51.9339057 49.3247279,52.0466402 C46.5487157,52.6638995 42.9640151,54.8730914 42.1132128,62.0420961 C41.890109,63.8873021 41.8525073,66.0641397 42.0550554,68.6221514 C39.3903444,68.933056 37.1778572,69.0402296 35.3544228,68.9922037 C26.1535242,68.7884727 26.6107615,64.8953407 26.6107615,64.8953407 C25.4250528,58.106499 30.4401242,51.9824371 30.4401242,51.9824371 L38.7842041,51.9824371 L38.7576322,51.8535254 L50.7821719,51.8535254 Z" id="Fill-32" fill="#F8644A"></path>
                                <path d="M42.054905,68.6221008 C39.3906953,68.9330054 37.1777068,69.040179 35.3542724,68.9921531 C35.4229582,68.9547435 35.4976604,68.9223892 35.5884059,68.8900349 C37.1566498,68.3329343 39.3315352,65.7905942 41.0496847,63.506583 C41.4327213,62.9970028 41.7891859,62.4985444 42.1130623,62.0420455 C41.8899586,63.8872516 41.8528582,66.0640892 42.054905,68.6221008" id="Fill-34" fill="#38173E"></path>
                                <path d="M47.8665318,31.4284594 C49.8960239,34.132571 48.6050303,37.8745477 46.5735328,39.1606311 C46.5735328,39.1606311 46.4000634,40.4062715 46.219575,41.856654 C45.9142488,44.3009201 45.8911863,46.7734963 46.1448728,49.2238288 L46.4787764,52.4501589 L31.0044011,52.352085 L29.1664274,30.6782441 L31.1889004,22.7443637 L33.8135029,22.4460975 C34.3464451,22.3823999 35.482018,22.3181969 36.4431189,22.3131415 C36.981576,22.3075806 37.4618757,22.3181969 37.7576762,22.3556065 L42.6809992,22.9647773 C42.8033303,22.8075556 48.8577141,25.8943579 48.7880255,26.1198269 L47.8665318,31.4284594 Z" id="Fill-36" fill="#E95743"></path>
                                <path d="M27.4112778,51.1510328 L45.0043866,46.8838042 L44.7396702,43.7747584 L29.5129652,45.7291602 L30.8545958,36.7235436 C30.9122518,36.3256868 30.9704092,35.9328854 31.0180381,35.5355342 C31.2491635,33.702461 31.3935542,31.8547273 31.4466981,30.0069936 C31.5138799,27.5869932 31.4271451,25.1619375 31.1864939,22.7469924 L29.8784542,23.1397938 C27.2959657,23.9107361 25.4920842,26.2629947 25.3958238,28.9736782 L25.3236284,30.0069936 L24.9390878,35.5355342 L24.0541932,48.2851497 C23.9243418,50.1424886 25.622437,51.5878158 27.4112778,51.1510328" id="Fill-38" fill="#F8644A"></path>
                                <path d="M36.4430688,22.3129899 L36.4591122,22.3129899 C37.1810658,22.3043958 37.7571247,21.7007859 37.749103,20.9728142 C37.7445908,20.5587803 37.7430867,20.1624401 37.749103,19.9880302 L37.7686559,19.5224317 L37.8498757,17.5746018 L42.8609362,18.9031502 L42.6714233,21.9677088 C42.670922,21.9970299 42.6704206,22.0359562 42.6689165,22.0824655 C42.6563826,22.6011453 42.942156,23.08191 43.4044069,23.3094011 C43.7097331,23.4600508 44.0576747,23.6354718 44.4056162,23.8144315 C44.1624582,25.8325308 42.4513277,27.3921091 40.3767136,27.3921091 C38.1326409,27.3921091 36.3162255,25.5716743 36.3162255,23.3195119 C36.3162255,22.9732198 36.3583395,22.6324886 36.4430688,22.3129899" id="Fill-40" fill="#E4A78A"></path>
                                <path d="M42.8608359,18.9033524 L42.6733285,21.9198851 C42.6302118,21.9274682 42.5820816,21.9305014 42.534954,21.9335346 C40.6182673,22.0513245 38.861012,21.0872675 37.7685557,19.5226339 L37.8497754,17.5748041 L42.8608359,18.9033524 Z" id="Fill-42" fill="#CD7D5A"></path>
                                <path d="M48.1211709,31.3575833 C48.0675257,31.1963173 47.8123352,31.2650702 47.8664817,31.4283583 C48.2986512,32.7255634 48.8962684,34.0172077 48.7052515,35.408948 C48.4791396,37.0575006 47.5992586,38.6458944 45.928738,39.1317144 C45.765797,39.1792348 45.8349843,39.436047 45.9989279,39.3885267 C47.4007213,38.9810647 48.2394911,37.9346054 48.6977311,36.5666252 C49.3359583,34.6622715 48.7363356,33.2038004 48.1211709,31.3575833" id="Fill-44" fill="#38173E"></path>
                                <path d="M42.095565,32.0334342 C42.0975704,31.8600354 41.7997645,31.8155483 41.7977591,31.9904637 C41.7837211,33.3801819 41.9486675,34.8366308 41.2347355,36.0478948 C40.3894481,37.4831113 38.8673291,38.5821463 36.9050188,38.3182566 C36.7140019,38.2924743 36.6939477,38.5609138 36.8859673,38.5866962 C38.5324228,38.8081209 39.8113838,38.1954114 40.802566,37.120642 C42.1817984,35.6237502 42.0755107,34.0121018 42.095565,32.0334342" id="Fill-46" fill="#38173E"></path>
                                <path d="M48.3635268,9.43739481 C48.0607073,9.41565677 47.7182807,9.5329411 47.3843771,9.73919975 C46.9110963,7.69380148 45.8091142,5.52505245 44.4684864,4.04181011 C43.9034573,3.30372769 43.260718,2.82700733 42.5638322,2.5449183 C42.1863106,2.36545305 41.8047781,2.24665211 41.4247497,2.21884764 C41.1640442,2.20014281 40.9063468,2.19458191 40.652159,2.20165942 C40.3974698,2.20165942 40.1407751,2.21429781 39.8800696,2.24058568 C39.501044,2.27900641 39.123021,2.4084236 38.7510143,2.5985051 C38.0616488,2.90031004 37.4319448,3.39522969 36.8879727,4.14847818 C35.5894588,5.66862465 34.5476395,7.86770583 34.1310121,9.92523696 C33.7915936,9.72858349 33.4456574,9.62090435 33.1438407,9.6512365 C32.1316015,9.75436583 31.8232671,11.3781472 32.1190676,12.601544 C32.4940824,14.1525282 33.6662544,14.6236877 34.750689,14.9184151 C35.2595661,15.9411142 35.9739994,16.9395476 36.7937176,17.7716597 C37.6535444,18.7645322 38.7550251,19.4945261 40.0039047,19.781165 C40.0405038,19.7902646 40.0776042,19.7978476 40.1147046,19.8054307 C40.1868999,19.8211023 40.2575912,19.8423348 40.3312907,19.8539621 C40.3804236,19.8625562 40.4310607,19.8615452 40.480695,19.8671061 C40.522809,19.8716559 40.5644216,19.8741836 40.6065355,19.8777223 C40.7032974,19.8847998 40.7995579,19.8893496 40.8963197,19.8873275 C40.9940843,19.8863164 41.0898434,19.8787334 41.1866053,19.8696337 C41.2282179,19.8650839 41.2703318,19.8615452 41.3119444,19.8554787 C41.3610774,19.8484012 41.4117144,19.8478957 41.4608474,19.8382905 C41.5345468,19.8241355 41.6042354,19.8008809 41.6764308,19.7836926 C41.7125285,19.774593 41.7496289,19.7659989 41.7862279,19.7558882 C43.0265844,19.4338618 44.1085122,18.6735358 44.940263,17.655892 C45.7369189,16.8015363 46.4227749,15.7838926 46.9030746,14.747544 C47.9789861,14.4224844 49.1376215,13.9184651 49.4695197,12.3573702 C49.7317293,11.1263903 49.3777714,9.51170859 48.3635268,9.43739481" id="Fill-48" fill="#E4A78A"></path>
                                <path d="M40.6272416,16.7197912 C39.9123069,16.505444 39.1291877,15.992325 38.7842542,14.8058322 C38.7566796,14.7082638 38.8118289,14.6061456 38.9080894,14.57733 C39.0038485,14.54902 39.1061253,14.6041234 39.1347026,14.7027029 C39.7518727,16.8203928 41.9167311,16.4882557 42.0099834,16.4735952 C42.109252,16.456407 42.2025044,16.5251599 42.2200519,16.625256 C42.2360953,16.7258576 42.1684121,16.8203928 42.0691435,16.83657 C42.0566096,16.8390976 41.3792766,16.9447547 40.6272416,16.7197912" id="Fill-50" fill="#38173E"></path>
                                <path d="M38.2080951,12.3212749 C38.2361711,12.6670615 38.5344783,12.9243793 38.8754009,12.8960693 C39.2163235,12.8682648 39.47001,12.5649432 39.4414326,12.2196622 C39.4133567,11.8738757 39.1150494,11.6165579 38.7736255,11.6448679 C38.4332043,11.6726724 38.1795178,11.9754884 38.2080951,12.3212749" id="Fill-52" fill="#38173E"></path>
                                <path d="M43.2265756,12.2509043 C43.2546516,12.5966909 43.5529589,12.8535031 43.8938814,12.8256987 C44.234804,12.7973886 44.4884905,12.4945726 44.4599132,12.1487861 C44.4318372,11.8035051 44.1330286,11.5456817 43.792106,11.5744973 C43.4516848,11.6023018 43.1979983,11.9051178 43.2265756,12.2509043" id="Fill-54" fill="#38173E"></path>
                                <path d="M37.4305911,10.7580063 C37.4240735,10.7559841 37.4180572,10.7534564 37.4120409,10.7509288 C37.3182872,10.7120025 37.2741678,10.6038178 37.313775,10.5097881 C37.7795354,9.39053164 38.778238,9.41631397 39.2444997,9.58061314 C39.3392561,9.61498958 39.3878877,9.72014105 39.3542968,9.81568733 C39.3212073,9.91173915 39.2269522,9.96330382 39.121166,9.9279163 C39.0890791,9.91578344 38.0983982,9.57859099 37.651188,10.6523493 C37.614589,10.739807 37.5193312,10.7842941 37.4305911,10.7580063" id="Fill-56" fill="#38173E"></path>
                                <path d="M42.9308253,9.96664035 C42.9268144,9.96107946 42.9233049,9.95551856 42.9202968,9.94945213 C42.8731693,9.85946674 42.9072615,9.74774331 42.996503,9.70072847 C44.0613847,9.13351718 44.8164279,9.79223047 45.0731226,10.2183972 C45.1247623,10.3048439 45.096185,10.4180839 45.010453,10.4701541 C44.9242196,10.5227298 44.8194361,10.5030139 44.7592733,10.4079732 C44.7422271,10.377641 44.1892307,9.48284249 43.167967,10.0267991 C43.0847418,10.0707807 42.982465,10.0439873 42.9308253,9.96664035" id="Fill-58" fill="#38173E"></path>
                                <path d="M41.88309,14.8440002 C41.7858268,14.8455168 41.7056097,14.7676643 41.7041057,14.6690848 C41.7026016,14.5705053 41.7793092,14.489114 41.8765724,14.4865863 C41.8805832,14.4865863 42.2179963,14.4734424 42.3022242,14.2884162 C42.3408287,14.2029807 42.3759237,13.9390909 41.876071,13.3284036 C41.8139028,13.2525732 41.8249326,13.1398387 41.9001361,13.0771522 C41.975841,13.0144658 42.0871422,13.0255876 42.1498118,13.1014179 C42.618079,13.6736846 42.7734996,14.1109731 42.6240953,14.4380549 C42.4446095,14.8298452 41.9071551,14.8440002 41.8840927,14.8440002 L41.88309,14.8440002 Z" id="Fill-60" fill="#38173E"></path>
                                <path d="M46.5612496,16.7197912 C46.5101112,16.2021224 46.7111553,15.7203467 47.0575928,15.3856819 C47.2400866,15.9569375 47.7990994,16.3446835 48.4147654,16.2830082 C48.8750109,16.2364989 49.2525325,15.9493545 49.4435494,15.5590807 C49.6255419,15.7936494 49.7488757,16.0787716 49.7809625,16.3967537 C49.8692013,17.2915523 49.2184402,18.0923212 48.3310388,18.1812955 C47.4436374,18.2702698 46.6494884,17.6145897 46.5612496,16.7197912 M48.0111733,14.9352494 C48.4308088,14.8927844 48.8268806,15.0216961 49.1402286,15.2592979 C49.0344423,15.5919406 48.7421514,15.8472362 48.3756596,15.8841403 C47.9003734,15.9316607 47.4772283,15.5929516 47.4055343,15.1222977 C47.5880282,15.0232127 47.791579,14.9569875 48.0111733,14.9352494 M49.1572747,14.7906662 C48.8078291,14.5919906 48.3992234,14.4934111 47.9715661,14.5363816 C47.7875682,14.5545809 47.6166055,14.6051345 47.4521605,14.668832 C47.5689766,14.358433 47.8482323,14.1223477 48.1981793,14.0869602 C48.6539126,14.041462 49.0600115,14.3513555 49.1572747,14.7906662 M46.1656792,16.759223 C46.2759776,17.8744352 47.2646531,18.6908757 48.3701447,18.5801633 C49.4761376,18.4689454 50.2863301,17.4720286 50.1760316,16.3568164 C50.1274,15.8634134 49.9002854,15.4352244 49.5734008,15.1131981 C49.5814225,15.0292791 49.5819239,14.943338 49.5739022,14.8563858 C49.5032109,14.1410525 48.8684932,13.6173173 48.1590735,13.6880924 C47.5163342,13.752801 47.0345304,14.2846247 47.0009395,14.9155335 C46.4364118,15.3255232 46.0919797,16.0125464 46.1656792,16.759223" id="Fill-62" fill="#FFC64F"></path>
                                <path d="M32.0052596,16.7953182 C31.9536198,16.2776495 32.1551652,15.7963793 32.5011014,15.461209 C32.6840966,16.0329701 33.242608,16.4207161 33.8587754,16.3590408 C34.3190209,16.3125315 34.6965425,16.0253871 34.8875594,15.6346078 C35.0695519,15.8691765 35.1928856,16.1542987 35.2244711,16.4722808 C35.3132112,17.3670793 34.6624502,18.1678482 33.7745475,18.2573281 C32.8876474,18.3463024 32.0934984,17.6906223 32.0052596,16.7953182 M33.4546819,15.0107765 C33.8748188,14.968817 34.2703893,15.0972231 34.5837372,15.334825 C34.4784523,15.6679732 34.18566,15.9232688 33.8191682,15.9601729 C33.3443834,16.0076933 32.920737,15.6684787 32.8495443,15.1978248 C33.0315368,15.0987397 33.235589,15.0330201 33.4546819,15.0107765 M34.6007833,14.8666988 C34.2518391,14.6680232 33.8432333,14.5689381 33.415576,14.6119087 C33.2315781,14.6306135 33.0601141,14.6811671 32.8956691,14.7448646 C33.0129866,14.43396 33.2922423,14.1978748 33.6421893,14.1629928 C34.0974212,14.1174946 34.5035201,14.4268825 34.6007833,14.8666988 M31.6096891,16.8352556 C31.7199876,17.9499622 32.7081617,18.7669083 33.8141546,18.6556904 C34.9196462,18.544978 35.73034,17.5475557 35.6200416,16.432849 C35.5709086,15.939446 35.343794,15.5107515 35.0169094,15.1887251 C35.0249311,15.1048062 35.0259338,15.0193706 35.0174108,14.9324184 C34.9467195,14.2170851 34.3125032,13.6928444 33.6030835,13.764125 C32.9603441,13.8288336 32.478039,14.3606573 32.4444481,14.9910606 C31.8804218,15.4010502 31.5354883,16.088579 31.6096891,16.8352556" id="Fill-64" fill="#FFC64F"></path>
                                <path d="M43.6432031,19.0983376 C43.6226474,19.1140092 43.6061027,19.1301864 43.5865498,19.145858 C43.5830403,19.145858 43.5790294,19.1453524 43.5760213,19.1453524 L43.6432031,19.0983376 Z" id="Fill-66" fill="#52A093"></path>
                                <path d="M56.579109,36.9737839 L52.2153001,36.9737839 C51.807697,36.9737839 51.449227,37.242729 51.3309068,37.6355304 L48.1016681,48.4150724 C47.9221824,49.0126159 48.3663845,49.6157202 48.9860614,49.6157202 L53.5724727,49.6157202 C53.986092,49.6157202 54.3495756,49.338181 54.4613782,48.93628 L57.4680145,38.1572434 C57.6339635,37.5632387 57.1912655,36.9737839 56.579109,36.9737839" id="Fill-68" fill="#38173E"></path>
                                <path d="M45.897353,46.7823937 C47.2891193,47.7080299 54.1807688,48.5780572 53.1544916,46.0574552 C53.1544916,46.0574552 54.5472606,44.9387042 52.8887725,44.1070977 C52.8887725,44.1070977 52.7749646,43.0515387 51.2553523,42.8437635 C51.2553523,42.8437635 50.5684936,42.9610478 51.1244982,43.6667759 L51.3696617,43.8993224 C51.3696617,43.8993224 49.80593,44.3077954 49.4780428,43.7982152 L49.982909,42.1087143 C49.982909,42.1087143 49.1030279,42.1506737 45.8462146,43.612178 L44.0583766,43.9761639 L44.7171593,46.84963 L45.897353,46.7823937 Z" id="Fill-70" fill="#E4A78A"></path>
                                <path d="M52.7342043,44.0596784 C51.8046889,44.7249637 50.7508371,45.0353627 49.6117546,44.9746984 C49.442296,44.9655988 49.4427974,45.2315106 49.6117546,45.2406103 C50.7904442,45.3038023 51.9049602,44.9787427 52.8675652,44.2896972 C53.0044355,44.1916233 52.8730801,43.9605934 52.7342043,44.0596784" id="Fill-72" fill="#FC8D8A"></path>
                                <path d="M53.4177039,44.800238 C52.4736492,45.4928221 51.4007458,45.8421475 50.2320833,45.8290035 C50.0621233,45.8269814 50.061622,46.0933988 50.2320833,46.0954209 C51.4413557,46.1085649 52.5719151,45.7481178 53.5510648,45.0302568 C53.6869324,44.9306662 53.5550756,44.6996363 53.4177039,44.800238" id="Fill-74" fill="#FC8D8A"></path>
                                <path d="M52.9618704,46.0793449 C52.0143061,46.6243126 50.9624597,46.7911395 49.8965753,46.5621317 C49.7306263,46.5267442 49.6594336,46.7835564 49.825884,46.8189439 C50.9624597,47.0631178 52.0854988,46.8902245 53.0952312,46.3093637 C53.2426301,46.2244337 53.1097706,45.9944149 52.9618704,46.0793449" id="Fill-76" fill="#FC8D8A"></path>
                                <g id="Group-80" transform="translate(32.487916, 0.196653)">
                                    <mask id="mask-12" fill="white">
                                        <use xlink:href="#path-11"></use>
                                    </mask>
                                    <g id="Clip-79"></g>
                                    <path d="M15.4050878,2.75542345 C13.8894864,2.79889953 12.4766632,1.90966188 11.1094634,1.13922516 C9.79741282,0.400637204 8.23919613,-0.112481739 6.91711845,0.788888779 C6.51152086,1.06541692 6.49497608,1.09069371 6.01417499,0.996158499 C5.66924156,0.928416688 5.34937597,0.870280059 4.99140727,0.904150965 C4.08946652,0.990092068 3.25019537,1.59269087 2.69168398,2.29488024 C1.96772487,3.20383379 1.46135458,4.66483256 1.23825084,5.79925513 C0.936434088,7.33810642 0.834658674,8.83095394 0.256594371,10.2732479 C0.732883259,10.4426024 1.1460012,9.7919777 1.46185593,9.55134261 C1.50447126,10.3662665 1.3545656,11.239327 1.59672089,12.0168412 C1.89703357,12.9793816 2.56734751,13.7113976 2.88621039,14.6714102 C2.86916426,13.9100732 3.02909705,13.0966659 3.10179378,12.337351 C3.15744437,11.7529515 3.15343352,10.8702858 3.42316344,10.295997 C3.92000795,10.0513176 4.3967982,9.68682623 4.72418414,9.35216146 C5.26715347,8.79859965 6.2202326,7.79662748 6.36061248,7.04186238 C7.27057494,8.13887529 8.52697488,5.47722875 8.97418508,5.03185162 C9.30257374,5.67388222 9.71368625,6.3325955 10.3333632,6.7183194 C10.8913732,7.0661281 11.6313757,7.09544918 12.1633152,7.43415824 C12.5679101,7.69147602 12.9684941,8.60599047 13.330975,9.0852385 C13.7531174,9.64284461 14.2665067,10.1493916 14.9694088,10.3172295 C15.3965647,7.90127342 15.4401827,4.88170746 13.9441343,2.77210613 C14.3131328,3.04863427 15.0195445,2.94146066 15.4050878,2.75542345" id="Fill-78" fill="#38173E" mask="url(#mask-12)"></path>
                                </g>
                                <path d="M47.5752436,9.24534172 L45.0935278,8.03862752 C45.0935278,8.03862752 47.0428027,11.5692903 46.3785051,14.8760006 C46.3785051,14.8760006 47.7081031,13.4903267 47.5752436,9.24534172" id="Fill-81" fill="#38173E"></path>
                                <path d="M21.1320856,56.485296 L23.8669866,56.3700338 C30.4307488,56.0950222 35.6809564,61.8065669 34.9093684,68.3851056 L29.8922917,115.779602 L26.7242185,115.779602 L25.2086172,74.9894267 C25.1564761,73.712443 24.1146568,72.7044044 22.8477283,72.7044044 C21.7121554,72.7044044 20.7375179,73.5183172 20.5259454,74.642629 L13.523496,116.311931 L11.0598291,116.311931 L19.8350758,69.8653147 L17.2074652,62.3242357 C16.2383427,59.5427771 18.21068,56.6081412 21.1320856,56.485296" id="Fill-83" fill="#38173E"></path>
                                <path d="M75.2566022,25.9011321 C74.7617631,32.8830884 74.7627659,40.1557279 73.3018124,47.0143336 C73.2782486,47.1270681 73.4492112,47.175094 73.472775,47.0623595 C74.9387421,40.1784771 74.937238,32.905332 75.4340825,25.9011321 C75.4421042,25.7858699 75.2651253,25.7863754 75.2566022,25.9011321" id="Fill-85" fill="#52A093"></path>
                                <path d="M75.4059063,26.0837822 C75.4008927,26.0559777 75.3953778,26.0281732 75.3903642,26.0003688 C75.3206756,26.0276677 75.250987,26.0544611 75.1833039,26.0837822 L75.4059063,26.0837822 Z" id="Fill-87" fill="#52A093"></path>
                                <path d="M79.7575322,22.0392422 C78.8129761,22.2773496 77.8047478,22.3395305 76.880246,22.6201029 C74.2571476,23.416322 74.7544935,25.4839638 75.1530721,27.5561555 C76.7072779,26.9449626 78.5367286,26.8817706 79.8432642,25.81054 C81.424042,24.5148515 82.4277581,22.4487263 82.4412948,20.3856342 C81.581468,21.1515211 80.9542707,21.7379428 79.7575322,22.0392422" id="Fill-89" fill="#52A093"></path>
                                <path d="M72.7860166,46.6352322 C72.766965,46.6352322 72.7484148,46.6316934 72.7323714,46.6236049 L72.6651896,46.589734 L72.6681977,46.512387 C72.6712059,46.4441396 72.7178321,46.40673 72.8406644,46.3561764 L72.8406644,14.5251082 C72.7158266,14.4745546 72.6712059,14.438156 72.6681977,14.3688976 L72.6636855,14.2935727 L72.7323714,14.2581852 C72.8196075,14.213698 72.9604887,14.3077277 73.0096217,14.3446318 L73.067779,14.3658643 L73.067779,46.5154202 L73.0096217,46.5371582 C72.9695131,46.5669848 72.8702445,46.6352322 72.7860166,46.6352322" id="Fill-91" fill="#52A093"></path>
                                <path d="M78.2970299,8.88792784 C78.3637104,9.53551933 75.6854628,10.5703513 75.2267214,10.8018868 C74.2069618,11.3160168 72.9876622,11.9555197 72.5920918,13.1111748 C72.3198551,13.9068883 72.4853028,14.7192845 72.8432715,15.4563558 C73.2443569,15.1929716 73.5787618,14.6945132 73.8880989,14.3183945 C74.8231292,13.1824553 76.3838527,12.9504144 77.3319182,11.8705897 C78.0358231,11.0698208 78.4063257,9.9546086 78.2970299,8.88792784" id="Fill-93" fill="#52A093"></path>
                                <path d="M71.2648,27.3330625 C71.2663041,27.2178003 71.0883224,27.2178003 71.0873197,27.3330625 C71.0071026,33.5086891 71.193106,39.6792604 71.6458311,45.8382043 C71.6538528,45.9524554 71.8318344,45.9534665 71.82281,45.8382043 C71.3710876,39.6792604 71.1845829,33.5086891 71.2648,27.3330625" id="Fill-95" fill="#52A093"></path>
                                <path d="M70.9025196,25.4652084 C70.5535753,24.6654506 69.8266081,24.3039925 69.2079339,23.7484085 C68.5541647,23.1614813 67.8251921,22.6190413 67.3042824,21.9052246 C66.7908931,21.2015186 66.5652826,20.4593919 66.2012976,19.6985604 C65.8503479,21.0523855 66.7838741,23.0320641 67.2867349,24.2908485 C67.9981601,26.0723571 69.2986795,27.4145549 71.1837807,27.7790463 L71.242941,27.8386995 C71.2429408,26.9969822 71.2444449,26.2482836 70.9025196,25.4652084" id="Fill-97" fill="#52A093"></path>
                                <path d="M73.9605951,50.3576447 L71.9476479,50.3576447 C70.9985796,50.3576447 70.2294984,49.5816471 70.2294984,48.6241621 L70.2294984,31.1220036 L75.6797473,31.1220036 L75.6797473,48.6241621 C75.6797473,49.5816471 74.9101647,50.3576447 73.9605951,50.3576447" id="Fill-99" fill="#9EDFE9"></path>
                                <path d="M73.9444514,48.9836992 L71.9645937,48.9836992 C71.2571794,48.9836992 70.6831259,48.4048606 70.6831259,47.6915495 L70.6831259,36.1597699 L75.2254178,36.1597699 L75.2254178,47.6915495 C75.2254178,48.4048606 74.6518657,48.9836992 73.9444514,48.9836992" id="Fill-101" fill="#4ACDFF"></path>
                                <path d="M24.6626397,115.559441 L24.6626397,58.579984 L22.0034436,58.579984 L22.0034436,115.559441 L15.6642892,116.742395 C15.3283802,116.805082 15.0902358,117.046728 15.0902358,117.325784 C15.0902358,117.656404 15.4216325,117.924844 15.8307396,117.924844 L30.835845,117.924844 C31.2449521,117.924844 31.5763489,117.656404 31.5763489,117.325784 C31.5763489,117.046728 31.3382045,116.805082 31.0027968,116.742395 L24.6626397,115.559441 Z" id="Fill-103" fill="#00AFD1"></path>
                                <path d="M88.2096044,115.559441 L88.2096044,58.579984 L85.5504083,58.579984 L85.5504083,115.559441 L79.2107526,116.742395 C78.8748436,116.805082 78.6366991,117.046728 78.6366991,117.325784 C78.6366991,117.656404 78.9680959,117.924844 79.377203,117.924844 L94.3828097,117.924844 C94.7914155,117.924844 95.1228123,117.656404 95.1228123,117.325784 C95.1228123,117.046728 94.8846678,116.805082 94.5492602,116.742395 L88.2096044,115.559441 Z" id="Fill-105" fill="#00AFD1"></path>
                                <path d="M98.4340729,55.0945667 L5.54721133,55.0945667 C2.96773099,55.0945667 0.876572096,52.9854709 0.876572096,50.3844887 L0.876572096,49.9087794 L103.105213,49.9087794 L103.105213,50.3844887 C103.105213,52.9854709 101.014055,55.0945667 98.4340729,55.0945667" id="Fill-107" fill="#9EDFE9"></path>
                                <path d="M92.7350507,59.384241 L12.9631797,59.384241 C10.6133208,59.384241 8.7081652,57.4637101 8.7081652,55.0947689 L96.9890625,55.0947689 C96.9890625,57.4637101 95.0849097,59.384241 92.7350507,59.384241" id="Fill-109" fill="#00AFD1"></path>
                            </g>
                            <g id="Group-3" transform="translate(47.829431, 0.000000)">
                                <g id="Group-37">
                                    <mask id="mask-14" fill="white">
                                        <use xlink:href="#path-13"></use>
                                    </mask>
                                    <g id="Clip-36"></g>
                                    <path d="M12.6273242,0.35964054 L1.2846631,0.35964054 C0.574897956,0.35964054 -0.000236194723,0.95274905 -0.000236194723,1.68408716 L-0.000236194723,9.15457505 C-0.000236194723,9.8865221 0.574897956,10.4796306 1.2846631,10.4796306 L2.77623278,10.4796306 L3.99027365,12.9294002 C4.07412278,13.0980768 4.30795556,13.0980768 4.3912142,12.9294002 L5.60584556,10.4796306 L12.6273242,10.4796306 C13.3364988,10.4796306 13.911633,9.8865221 13.911633,9.15457505 L13.911633,1.68408716 C13.911633,0.95274905 13.3364988,0.35964054 12.6273242,0.35964054" id="Fill-35" fill="#93BF56" mask="url(#mask-14)"></path>
                                </g>
                                <ellipse id="Oval" fill="#FFFFFF" transform="translate(10.628763, 5.358681) scale(-1, -1) translate(-10.628763, -5.358681) " cx="10.6287625" cy="5.35868058" rx="1" ry="1"></ellipse>
                                <ellipse id="Oval-Copy" fill="#FFFFFF" transform="translate(7.085842, 5.358681) scale(-1, -1) translate(-7.085842, -5.358681) " cx="7.08584169" cy="5.35868058" rx="1" ry="1"></ellipse>
                                <ellipse id="Oval-Copy-7" fill="#FFFFFF" transform="translate(3.542921, 5.358681) scale(-1, -1) translate(-3.542921, -5.358681) " cx="3.54292085" cy="5.35868058" rx="1" ry="1"></ellipse>
                            </g>
                        </g>
                        <path d="M165.808696,359.651715 L281.282609,359.651715" id="Line" stroke="#6E6E6E" stroke-width="4" opacity="0.200000003" stroke-linecap="round"></path>
                        <g id="Group-9" stroke="none" stroke-width="1" fill-rule="evenodd" transform="translate(318.786957, 201.269129)">
                            <g id="Group-50" transform="translate(0.000000, 16.926488)">
                                <polygon id="Fill-1" fill="#38173E" points="64.0480684 76.8214449 73.30367 110.478798 74.6083683 110.478798 66.5046521 76.8214449"></polygon>
                                <polygon id="Fill-2" fill="#38173E" points="44.3404094 76.8214449 36.2366932 110.478798 37.5425492 110.478798 46.7969931 76.8214449"></polygon>
                                <polygon id="Fill-3" fill="#38173E" points="53.8801041 76.8214449 54.3512773 110.478798 55.6953365 110.478798 56.254493 76.8214449"></polygon>
                                <g id="Group-49" transform="translate(0.000000, 0.532486)">
                                    <path d="M73.9526619,37.3296643 L55.8084413,37.3296643 L51.4428536,74.8142945 L70.4831137,74.8142945 C70.4831137,74.8142945 72.9651662,75.7760323 74.9991989,73.786589 C77.032074,71.7959884 76.7195021,70.1062925 76.2680094,63.081324 C75.8176743,56.0563555 73.9526619,37.3296643 73.9526619,37.3296643" id="Fill-4" fill="#9EDFE9"></path>
                                    <path d="M73.9526619,37.3296643 L75.9114458,69.0415526 C76.1047774,72.170962 73.6180942,74.8142945 70.4831137,74.8142945 L41.5169589,74.8142945 L41.5169589,76.2887277 L70.8801958,76.2887277 C74.6032745,76.2887277 77.5565002,73.154689 77.3353846,69.4396727 L75.4275382,37.3296643 L73.9526619,37.3296643 Z" id="Fill-6" fill="#00AFD1"></path>
                                    <path d="M51.9833715,63.8842767 C51.9833715,63.8842767 33.9676526,61.2177977 28.3448313,60.3254994 C22.7208522,59.4320438 20.5143261,63.9641322 18.9063172,69.4544865 C16.9429026,76.1565611 10.263125,103.564354 10.263125,103.564354 L15.4564495,103.564354 C15.4564495,103.564354 28.3448313,81.1978729 28.3448313,72.5214003 L39.3728314,74.0652731 L51.9833715,63.8842767 Z" id="Fill-8" fill="#002B84"></path>
                                    <path d="M46.0700897,103.56447 C46.0747204,94.0072723 45.2249879,84.4280854 41.9522442,74.8141787 L60.8767369,74.8141787 C72.4349516,74.8141787 74.1714622,69.9256339 74.1714622,64.0950258 L35.6869139,64.0950258 C30.5422118,64.0950258 27.8969273,67.9662811 30.5422118,73.877902 C33.24538,79.9179862 40.8767653,103.56447 40.8767653,103.56447 L46.0700897,103.56447 Z" id="Fill-10" fill="#0444A8"></path>
                                    <path d="M71.4930682,16.0659988 C71.568317,15.839163 72.6287462,12.281543 72.8556502,9.93564328 C73.083712,7.58974358 73.3094583,4.33534301 68.5410002,3.20000625 C63.7713844,2.0646695 64.3062296,1.78343929 61.6134805,0.983727058 C57.108972,-0.352984415 55.6722988,2.15378359 56.8612298,6.71249051 L58.8501133,12.8868245 L68.3129385,16.82289 L71.4930682,16.0659988 Z" id="Fill-12" fill="#262626"></path>
                                    <path d="M58.2448814,6.71249051 L57.8396956,11.8973108 C57.8396956,11.8973108 56.8440962,9.73311124 57.0108012,6.23798687 L58.2448814,6.71249051" id="Fill-14" fill="#002777"></path>
                                    <g id="Group-18" transform="translate(31.257191, 22.932465)">
                                        <mask id="mask-16" fill="white">
                                            <use xlink:href="#path-15"></use>
                                        </mask>
                                        <g id="Clip-17"></g>
                                        <path d="M32.1881923,7.2858944 L37.4150893,2.11496206 L38.0575982,0.0688097757 L40.361369,3.67735209 C40.361369,3.67735209 45.6403612,4.64719123 46.9068563,5.7026725 C48.1733514,6.75815377 58.8320536,25.5427113 59.0983185,26.3875592 C59.3634258,27.2312498 46.9068563,37.9966958 46.9068563,37.9966958 L43.5287643,33.7747708 L49.2291498,24.4883873 L43.1062134,15.6232705 C43.1062134,15.6232705 40.5732233,34.1971947 42.8955168,40.951349 L20.7260646,40.951349 C20.7260646,40.951349 20.682073,27.8492619 21.9624601,21.5233182 C21.9624601,21.5233182 14.6610118,28.2415954 12.7485348,28.5899505 C11.4345751,28.8283596 0.245658369,7.2858944 0.245658369,7.2858944 L5.52465064,4.64719123 L14.6031281,17.3118091 C14.6031281,17.3118091 21.2585945,9.40958752 23.5299504,7.03359734 C25.7005887,4.76060918 28.4546945,4.92957877 28.4546945,4.92957877 L30.9344317,0.818756991 L30.9344317,3.36834606 L32.1881923,7.2858944" id="Fill-16" fill="#F0F1F5" mask="url(#mask-16)"></path>
                                    </g>
                                    <path d="M71.6185601,26.6097012 C71.6185601,26.6097012 72.3872554,28.9532862 71.6185601,29.8131794 C70.8510224,30.6719153 67.520395,31.2089145 67.520395,31.2089145 C67.520395,31.2089145 71.1358101,31.5306511 71.9600738,31.2089145 C72.7843375,30.8860206 72.4474545,27.9082209 71.6185601,26.6097012" id="Fill-19" fill="#D2D3D7"></path>
                                    <path d="M59.7117698,27.8619279 C59.7117698,27.8619279 59.4223514,30.134916 59.7117698,30.564284 C60.0023459,30.9948092 61.6138278,31.8535451 61.6138278,31.8535451 C61.6138278,31.8535451 60.3565941,32.6046496 60.9308003,33.3569115 C60.9308003,33.3569115 59.9051014,32.8199122 60.5985479,31.8535451 C60.5985479,31.8535451 58.9280247,31.2980286 58.8203611,30.6094197 C58.7126974,29.9196534 59.7117698,27.8619279 59.7117698,27.8619279" id="Fill-21" fill="#D5D6DA"></path>
                                    <path d="M39.3727156,44.7125937 C42.5192728,50.3429844 45.3914614,47.9912981 47.4567513,46.1974429 C49.9607997,44.0239848 53.8795253,39.4768511 53.8795253,39.4768511 L53.2196512,44.4556673 C53.2196512,44.4556673 45.9182029,51.1739445 44.0045682,51.5222996 C43.5044532,51.612571 41.5734534,48.5456572 39.3727156,44.7125937" id="Fill-23" fill="#D2D3D7"></path>
                                    <path d="M68.6723962,54.5200053 C68.3019406,52.0329118 70.557089,49.2217671 69.9770945,46.625885 C69.3982576,44.0311602 71.9636626,37.0027197 72.4348358,36.6786684 C72.906009,36.3546171 74.3635203,38.5558511 74.3635203,38.5558511 C74.3635203,38.5558511 71.8305301,57.1297753 74.151666,63.8839295 L65.4320673,63.8839295 C70.2572515,63.0842173 69.0428518,57.0070987 68.6723962,54.5200053" id="Fill-25" fill="#D2D3D7"></path>
                                    <path d="M63.4453834,30.2183592 L64.4919205,32.9785816 L62.6442732,34.226179 C62.6442732,34.226179 63.7278558,47.2437813 63.4025495,48.691596 C63.0784009,50.1394108 60.4852117,51.6971715 59.8577525,51.5235726 C59.5741224,51.4460318 57.7334212,50.1868612 57.7832011,48.3906913 C57.8329811,46.5933641 61.8952583,33.9773539 61.8952583,33.9773539 C61.8952583,33.9773539 61.143928,33.0781116 61.2701145,32.7285992 C61.3951432,32.3790868 63.4453834,30.2183592 63.4453834,30.2183592" id="Fill-27" fill="#E95743"></path>
                                    <path d="M74.7858397,56.707467 C73.2808638,58.5950657 71.0905451,61.3008937 74.3632887,65.5725838 C75.9493018,67.6418826 80.078724,70.6486154 79.8668697,68.9600769 C79.6561731,67.2715383 77.2817843,64.6316778 76.640433,63.2336281 C76.0222352,61.887658 76.5651842,60.6145994 77.40334,59.9780702 L74.7858397,56.707467 Z" id="Fill-29" fill="#E4A78A"></path>
                                    <path d="M58.2076043,6.71249051 C57.8938748,11.0999132 56.7744042,17.7001431 58.81191,19.8944331 C60.8505735,22.0887231 62.1911597,21.9128095 62.1911597,21.9128095 L62.1911597,26.3002322 L63.4449204,30.2189379 L69.0885799,26.6138676 L69.6002717,18.4651355 C69.6002717,18.4651355 70.8876049,19.8504547 72.6935759,17.0555125 C74.2008671,14.7223434 71.9098308,12.6680899 70.968642,13.4504422 C70.0286109,14.2351092 70.085337,16.0833587 69.4590355,15.2998491 C69.2298161,15.0139896 69.379156,13.3694294 69.0700571,12.2063168 C66.7987012,10.6925345 67.0267629,8.19502505 67.0267629,8.19502505 C67.0267629,8.19502505 64.8190791,9.72385263 61.4872941,8.70656312 C59.4139004,8.07350583 62.5072046,6.69165864 62.3486033,6.71249051 C62.3486033,6.71249051 60.7440675,7.26106301 58.2076043,6.71249051" id="Fill-33" fill="#E4A78A"></path>
                                    <path d="M62.1910439,21.9125781 C65.1350083,22.1012222 67.112315,20.310839 67.9701513,18.8572376 C69.0861488,16.966167 68.7967303,19.5088121 67.6355836,20.7645107 C65.7288949,22.8268656 62.1910439,23.0004645 62.1910439,23.0004645 L62.1910439,21.9125781" id="Fill-35" fill="#CD7D5A"></path>
                                    <path d="M62.6438101,34.2260633 C62.6438101,34.2260633 63.0767801,39.4201421 63.3129456,43.6119767 L62.6438101,34.2260633 Z" id="Fill-37" fill="#198BE4"></path>
                                    <path d="M62.0058161,49.2807907 C63.0106769,47.3955067 63.3151451,43.6839624 63.3139875,43.6272534 C63.450593,46.0634245 63.5223687,48.1593418 63.4019707,48.6917118 C63.077822,50.1395265 60.4846328,51.6972873 59.8571737,51.5236884 C59.7599291,51.4970699 59.476299,51.3223137 59.1521504,51.0445554 C59.8930615,51.4739234 61.3227886,50.5607932 62.0058161,49.2807907 Z" id="Fill-39" fill="#E5371F"></path>
                                    <path d="M64.491689,32.9783502 L62.6440417,34.2259475 C62.6440417,34.2259475 62.046682,33.9505039 63.4636747,32.3869566 C63.9996776,31.7944057 63.4451519,30.2181278 63.4451519,30.2181278 L64.491689,32.9783502 Z" id="Fill-41" fill="#E5371F"></path>
                                    <path d="M63.5052352,19.0152126 L60.3795161,18.4654827 C60.3795161,18.4654827 60.5786359,19.3103307 61.678426,19.527908 C62.7793737,19.7466426 63.5052352,19.0152126 63.5052352,19.0152126" id="Fill-43" fill="#FFFFFF"></path>
                                    <polygon id="Fill-45" fill="#032878" points="46.0700897 103.56447 46.0955586 109.945965 43.1029719 109.945965 43.1029719 108.073412 39.4759801 109.945965 30.6730289 109.945965 30.6139876 107.841947 38.2824185 105.262267 40.8767653 103.56447"></polygon>
                                    <polygon id="Fill-47" fill="#032878" points="15.4562179 103.56447 15.4816868 109.945965 12.4891001 109.945965 12.4891001 108.073412 8.86210828 109.945965 0.0591571283 109.945965 0.000115767374 107.841947 7.66854665 105.262267 10.2628935 103.56447"></polygon>
                                </g>
                            </g>
                            <g id="Group-3" transform="translate(47.230182, 0.000000)">
                                <g id="Group-37">
                                    <mask id="mask-18" fill="white">
                                        <use xlink:href="#path-17"></use>
                                    </mask>
                                    <g id="Clip-36"></g>
                                    <path d="M15.0864562,0.425999306 L1.53484723,0.425999306 C0.686857539,0.425999306 -0.000282192908,1.12854472 -0.000282192908,1.99482506 L-0.000282192908,10.8437236 C-0.000282192908,11.7107253 0.686857539,12.4132707 1.53484723,12.4132707 L3.31689545,12.4132707 L4.76736699,15.3150573 C4.86754548,15.5148572 5.14691646,15.5148572 5.24638946,15.3150573 L6.69756649,12.4132707 L15.0864562,12.4132707 C15.9337404,12.4132707 16.6208801,11.7107253 16.6208801,10.8437236 L16.6208801,1.99482506 C16.6208801,1.12854472 15.9337404,0.425999306 15.0864562,0.425999306" id="Fill-35" fill="#93BF56" mask="url(#mask-18)"></path>
                                </g>
                                <ellipse id="Oval" fill="#FFFFFF" transform="translate(12.698681, 6.347433) scale(-1, -1) translate(-12.698681, -6.347433) " cx="12.6986809" cy="6.34743294" rx="1.05822341" ry="1.05790549"></ellipse>
                                <ellipse id="Oval-Copy" fill="#FFFFFF" transform="translate(8.465787, 6.347433) scale(-1, -1) translate(-8.465787, -6.347433) " cx="8.46578725" cy="6.34743294" rx="1.05822341" ry="1.05790549"></ellipse>
                                <ellipse id="Oval-Copy-7" fill="#FFFFFF" transform="translate(4.232894, 6.347433) scale(-1, -1) translate(-4.232894, -6.347433) " cx="4.23289363" cy="6.34743294" rx="1.05822341" ry="1.05790549"></ellipse>
                            </g>
                            <path d="M25.1836202,31.9895944 C25.3379199,31.5844803 29.637932,32.0259755 30.4078177,32.4987902 C31.1785802,32.9716049 33.4124506,43.2343277 33.1810086,43.9769116 C32.9504434,44.7194955 28.6162222,44.0535281 27.7691638,43.3777633 C26.9212287,42.703536 25.0512381,32.3378234 25.1836202,31.9895944" id="Fill-1" fill="#252551" transform="translate(29.187339, 38.066801) rotate(-11.000000) translate(-29.187339, -38.066801) "></path>
                            <path d="M24.5029382,44.4375663 L28.8254265,41.2397283 C28.8254265,41.2397283 30.8596403,38.6935897 31.4560397,38.5881141 C32.306332,38.4378613 32.7401722,38.190718 34.4788563,37.2836383 C35.0916429,36.9639445 35.6951565,37.6288348 35.6951857,38.1061271 C35.6942595,39.2423715 34.4784084,42.155733 33.0900492,43.8174616 C31.847545,45.3050049 30.0832778,46.2634634 28.1825685,46.6435885 L27.4019734,46.7993203 L26.6502432,46.7992744 L24.5029382,44.4375663 Z" id="Fill-40" fill="#E4A78A" transform="translate(30.099062, 41.999590) scale(-1, 1) rotate(-12.000000) translate(-30.099062, -41.999590) "></path>
                        </g>
                        <g id="Group-4" stroke="none" stroke-width="1" fill-rule="evenodd" transform="translate(281.282609, 264.424802)">
                            <path d="M54.9170498,4.50542739 C54.7907339,4.50542739 54.6689472,4.49030512 54.5501799,4.46459727 C54.8320004,4.03613304 54.9985765,3.52500042 54.9985765,2.97354175 L54.9985765,1.027306 C55.9195256,1.07116057 56.6572913,1.82828207 56.6572913,2.76183002 C56.6572913,3.72310212 55.8767492,4.50542739 54.9170498,4.50542739 L54.9170498,4.50542739 Z M45.607412,0 L45.607412,2.97354175 C45.607412,4.47266248 46.8207498,5.68798866 48.3179212,5.68798866 L52.2885705,5.68798866 C52.9765145,5.68798866 53.5970228,5.42284492 54.0746079,5.00042959 C54.3378081,5.10023656 54.6196286,5.16173378 54.9170498,5.16173378 C56.2375801,5.16173378 57.312524,4.08502837 57.312524,2.76183002 C57.312524,1.46736397 56.2808597,0.415358265 54.9985765,0.370999615 L54.9985765,0 L45.607412,0 Z" id="Fill-8" fill="#00AFD1"></path>
                            <path d="M53.9173923,5.32162654 C53.9173923,5.32162654 55.1453244,4.21467661 54.8589747,2.53257645 C54.8589747,2.53257645 54.2445054,5.85544257 46.9146565,5.2399663 C49.4183295,5.44310875 51.8173264,5.53888311 53.9173923,5.32162654" id="Fill-10" fill="#004659"></path>
                            <polygon id="Fill-12" fill="#00AFD1" points="56.212015 7.73564442 44.6231539 7.73564442 43.0258357 5.43857207 57.8908599 5.43857207"></polygon>
                            <polygon id="Fill-14" fill="#9EDFE9" points="19.2181442 13.1047549 23.2215049 13.1047549 2.93646882 72.188964 -1.61648472e-13 72.188964"></polygon>
                            <polygon id="Fill-16" fill="#9EDFE9" points="25.8911501 13.1047549 29.8945108 13.1047549 15.4809026 72.188964 12.544937 72.188964"></polygon>
                            <polygon id="Fill-18" fill="#9EDFE9" points="87.5472323 13.1047549 83.5438716 13.1047549 103.828908 72.188964 106.765377 72.188964"></polygon>
                            <polygon id="Fill-20" fill="#9EDFE9" points="80.8747297 13.1047549 76.8708658 13.1047549 91.2844739 72.188964 94.2204395 72.188964"></polygon>
                            <polygon id="Fill-22" fill="#00AFD1" points="17.8834222 14.1745545 88.0808795 14.1745545 88.0808795 10.6984494 17.8834222 10.6984494"></polygon>
                            <path d="M97.6899013,10.9663655 L6.13950963,10.9663655 C4.37007958,10.9663655 2.9368211,9.52975017 2.9368211,7.75792456 L100.89259,7.75792456 C100.89259,9.52975017 99.4593314,10.9663655 97.6899013,10.9663655" id="Fill-24" fill="#9EDFE9"></path>
                        </g>
                        <g id="Group-8" stroke="none" stroke-width="1" fill-rule="evenodd" transform="translate(236.869565, 205.216359)">
                            <g id="Group-70" transform="translate(0.000000, 17.762533)">
                                <path d="M57.0415969,67.5962123 L84.0822139,107.463325 L78.6585726,107.463325 C78.6585726,107.463325 59.7680812,90.4096555 53.7408531,77.7198638 L57.0415969,67.5962123 Z" id="Fill-1" fill="#002B84"></path>
                                <path d="M29.7754556,55.3337137 L11.2633263,55.3337137 C11.2633263,55.3337137 1.50490947,79.1454311 39.6771877,73.5844683 L50.1531793,73.0143803 C50.1531793,73.0143803 50.8798922,94.9486773 60.7816243,108.351451 L67.0272208,108.351451 L57.7488849,69.0088795 C57.0697606,65.6131595 54.2738658,63.0341191 50.8153255,62.6128791 L38.045292,61.0574171 C35.6783441,60.7691481 33.5036483,59.6170642 31.9441592,57.8249338 L29.7754556,55.3337137 Z" id="Fill-6" fill="#0444A8"></path>
                                <path d="M31.8982184,39.1803769 L33.7293572,41.7485018 L29.7554814,48.0001196 C28.0956217,50.6114104 24.0498386,49.6617599 23.7417359,46.588544 L22.5283006,34.4723134 L28.7752454,33.5087704 L27.6981343,42.0695174 L31.8982184,39.1803769 Z" id="Fill-10" fill="#E95743"></path>
                                <path d="M31.8982184,39.1803769 L36.3574684,34.9109189 C37.3212256,33.9880611 38.4822286,33.2934369 39.7535892,32.8791432 L44.7141927,31.2616611 C44.7141927,31.2616611 46.0070256,32.438553 40.6219694,34.1508016 C40.6219694,34.1508016 42.4531082,35.8630502 40.7298303,37.4681283 L39.6956639,38.238665 C38.4093226,39.1972464 36.8448399,39.7152376 35.2374126,39.7152376 L33.2984129,41.7485018 L31.8982184,39.1803769 Z" id="Fill-12" fill="#E4A78A"></path>
                                <path d="M27.8151334,14.5485068 C27.6453523,14.6546851 27.4066601,14.7613595 27.1030516,14.8213949 C27.0316437,15.0977561 26.9512473,15.3756058 26.8588665,15.6484939 C26.7055641,16.1034727 26.5262953,16.5485284 26.315567,16.9732414 C25.9864914,17.6395845 25.5830116,18.2523423 25.1071253,18.7519755 C24.5283715,19.3622525 23.674972,19.6455599 22.8340563,19.5711359 C22.2088625,19.5175506 21.5207498,19.4614845 21.3889198,19.4679346 C19.4818788,19.5696474 17.5978083,17.7174816 16.4892377,15.5269346 C13.4256881,13.7873972 12.0130097,10.0011992 13.3313098,6.57074795 C14.7864334,2.78206913 18.8616785,1.33824313 22.7616497,2.29087059 C26.0494102,3.0886961 27.5764412,5.91333577 27.4940474,8.88434268 C27.5539701,9.63800993 27.5654553,10.4804899 27.5260062,11.4236903 L28.1142477,13.7938473 C28.1841575,14.081124 28.0703044,14.3887433 27.8151334,14.5485068" id="Fill-14" fill="#E4A78A"></path>
                                <polygon id="Fill-16" fill="#E4A78A" points="14.5826462 22.9200184 16.0038137 12.8539215 20.2922838 16.9288847 20.6268524 23.0718434"></polygon>
                                <path d="M23.5954745,10.0476894 C23.4861155,9.97921926 23.3667694,10.1404713 23.4766277,10.2089414 C23.9954587,10.5334301 24.2221664,10.9422661 24.3235357,11.5361698 C24.4004365,11.9851947 24.3929462,12.4426544 24.3854558,12.8961447 C24.3834584,13.0236579 24.5837002,13.0440004 24.5856976,12.9149988 C24.6036744,11.8338659 24.6076693,10.6812859 23.5954745,10.0476894" id="Fill-18" fill="#38173E"></path>
                                <path d="M23.4666905,14.027886 C22.7835714,13.714809 22.3341509,13.0459851 22.3136773,12.2972794 C22.3106812,12.1707586 22.1104394,12.1494237 22.1139349,12.2784253 C22.1369053,13.1218976 22.6222794,13.8601839 23.3947833,14.2144422 C23.5126313,14.2685237 23.5835399,14.0814713 23.4666905,14.027886" id="Fill-20" fill="#38173E"></path>
                                <path d="M26.3009359,16.0973203 C25.6178167,15.7847394 25.1683963,15.1154194 25.1479227,14.3667138 C25.1449265,14.2401929 24.9441854,14.218858 24.9476809,14.3478597 C24.9711506,15.1913319 25.4565247,15.9301144 26.2290286,16.2838765 C26.3463773,16.337958 26.4177852,16.1509056 26.3009359,16.0973203" id="Fill-22" fill="#38173E"></path>
                                <path d="M23.8182872,13.8529895 C23.7923207,13.4893042 23.7194147,13.1008108 23.3429002,12.9455127 C23.2235541,12.8963928 23.1516468,13.082949 23.2709929,13.1320689 C23.5731033,13.2571012 23.6000686,13.6039172 23.6200428,13.8857361 C23.6290312,14.0137454 23.8277749,13.9805027 23.8182872,13.8529895" id="Fill-24" fill="#38173E"></path>
                                <path d="M23.4223477,21.7576144 C26.821964,22.8084816 29.0490922,26.0429495 28.8029097,29.5721366 L28.0089335,40.9788582 C27.8621228,43.0840657 33.1318277,58.2224077 33.1318277,58.2224077 C27.1390552,62.4849194 19.6072671,62.5117121 9.33051863,60.8977032 C9.33051863,60.8977032 9.58419153,52.7879657 9.54024819,51.0871287 L8.90007368,26.227025 C8.65039563,24.6576704 9.57819926,23.1399166 11.0947437,22.6353217 C11.0947437,22.6353217 15.2034457,21.9992444 15.7986782,21.8871122 C16.5976479,21.7347911 17.411099,21.6499477 18.2275462,21.6410168 L18.8742124,21.1061562 C20.3692845,21.0863098 21.8588638,21.2932085 23.2915164,21.7189139 L23.4223477,21.7576144 Z" id="Fill-30" fill="#E95743"></path>
                                <path d="M24.9725987,22.4664784 C24.9011908,22.4853325 20.7465481,22.369231 19.2519753,22.3885813 L14.2154697,22.4525859 C13.3990224,22.4610207 12.585072,22.5463602 11.787101,22.6986814 L12.0962024,22.1995443 C12.8647114,20.9606324 14.2199639,20.2010112 15.6845753,20.1876149 L19.560078,20.1528837 C20.6901208,20.1429605 21.7782178,20.5790852 22.5841785,21.3664914 L24.9725987,22.4664784 Z" id="Fill-32" fill="#F8644A"></path>
                                <path d="M49.948693,31.4148258 L45.6022975,31.4148258 C45.196321,31.4148258 44.8392814,31.6787829 44.7214333,32.0647955 L41.5050807,42.643922 C41.3263112,43.2303833 41.7687407,43.8223024 42.3854455,43.8223024 L46.9540544,43.8223024 C47.3660232,43.8223024 47.7280564,43.5499104 47.8394128,43.1559593 L50.8340513,32.5763366 C50.9993382,31.9933485 50.5584068,31.4148258 49.948693,31.4148258" id="Fill-34" fill="#38173E"></path>
                                <path d="M49.6244111,32.0820123 L45.3339435,32.0770507 C45.2051096,32.0765545 45.0912564,32.158421 45.051308,32.279484 L41.7715371,42.1744057 C41.7096169,42.3614581 41.8459412,42.5549605 42.0436862,42.5619068 L46.5313994,42.7172049 C46.6657262,42.7216703 46.7865704,42.6358346 46.8260195,42.5083215 L49.9080454,32.4635594 C49.9669694,32.2740263 49.8236542,32.0825085 49.6244111,32.0820123" id="Fill-36" fill="#F9F9FF"></path>
                                <path d="M24.2352495,23.4733362 L24.2352495,23.4733362 C21.4673187,23.5636373 19.3954902,26.0275686 19.7984706,28.7499993 L22.6452997,47.9593352 C23.1311732,51.2359768 26.8338987,52.9482254 29.6702413,51.2076956 L42.9506167,42.1542616 L40.7968939,39.7999817 L29.2732532,44.0803552 L29.0230758,28.0072475 C28.9831273,25.4321764 26.825909,23.3894851 24.2352495,23.4733362" id="Fill-38" fill="#E95743"></path>
                                <path d="M40.7968939,39.8001306 L46.5050334,33.700834 C46.5050334,33.700834 48.2387978,33.1262805 45.6935798,37.3188337 C45.3794848,37.8358326 45.8079323,38.5071372 46.4061609,38.4019513 C47.2590611,38.2521109 48.5538915,37.4036771 50.240217,34.5120558 C50.4809067,34.1002429 51.1125922,34.2694335 51.1125922,34.7452511 C51.1115934,35.8779847 50.8029914,37.5247402 49.4102872,39.1814189 C48.1638944,40.6644415 46.3941764,41.620046 44.4876348,41.9991123 L43.7046444,42.1544104 L42.9506167,42.1544104 L40.7968939,39.8001306 Z" id="Fill-40" fill="#E4A78A"></path>
                                <path d="M13.283072,3.43749668 C13.3225211,3.38837682 13.3609715,3.33876081 13.40092,3.29013711 C15.5446557,0.679342463 18.9667431,-0.330839581 22.2589978,0.0938734983 C23.7875268,0.291345234 25.3250443,0.531486741 26.7936506,1.0112736 C26.9139954,1.05047025 27.0268498,1.1020709 27.1402037,1.1531754 C27.5311995,1.15516004 27.9271889,1.19336437 28.332666,1.30152728 C29.8696841,1.71135555 32.0563645,3.1571662 31.7337804,5.04455937 C31.0851169,4.44370944 30.3415756,3.8130899 29.4212623,3.75801613 C29.4187656,3.76248157 29.4192649,3.76148925 29.4167681,3.76645085 C30.4154803,5.49209581 30.3305898,6.68536095 30.2981316,7.39735075 C30.2412051,8.65213974 29.4966651,9.78636182 28.506442,10.5380444 C27.9691348,9.67621427 27.8747565,8.54000755 27.4108547,7.61516505 C27.3009963,7.39635843 27.182649,7.18846733 27.0603067,6.98454551 C27.0148653,7.31250736 26.970922,7.63848457 26.9259799,7.96545411 C26.8126261,8.79156074 26.094552,9.49958126 25.53777,10.0711577 C25.6166682,9.63701761 25.5557468,9.05402945 25.3994483,8.64172038 C24.968504,9.25199735 24.5180848,9.97887195 23.9862706,10.4953747 C23.446966,10.0200532 22.4657312,10.0394035 21.8909724,10.4055697 C20.5337225,11.2723614 20.887766,13.2594828 21.8035851,14.2999306 C21.9688719,14.4874791 22.6669718,14.8605916 22.6120426,15.1156179 C22.5166656,15.5557119 22.0262979,15.9739749 21.7716263,16.3232716 C21.7166971,16.3981918 21.6382982,16.4830352 21.5444192,16.5733364 C20.6585615,17.4227625 19.4366372,17.8320946 18.2077218,17.7690823 C17.0002788,17.7075584 15.528177,17.6326383 15.2849906,17.6242035 C14.5089912,17.5964186 8.12472346,9.82109303 13.283072,3.43749668" id="Fill-42" fill="#38173E"></path>
                                <path d="M21.2376648,30.1942718 C21.2681255,29.8593637 21.7979423,29.8558906 21.7674816,30.1942718 C21.0593947,37.9944054 21.2651294,45.7940427 22.3941735,53.5450564 C25.3568532,53.1912943 28.0593685,52.1032151 30.4517835,50.3254733 C30.7249313,50.12304 30.9890907,50.5795073 30.7194384,50.779956 C28.2096746,52.6445258 25.3758288,53.7425282 22.2638416,54.0903364 C22.1689639,54.101252 22.1035483,54.0650323 22.0621017,54.0099585 C21.9842022,53.9920967 21.9182872,53.9380153 21.9023078,53.8298524 C20.7477965,45.9845682 20.5205894,38.0916527 21.2376648,30.1942718" id="Fill-44" fill="#E5371F"></path>
                                <path d="M12.601351,22.4252971 C16.3215539,22.4625091 20.0252781,22.2908377 23.7255068,21.9092906 C24.0645696,21.8745594 24.0620728,22.4009853 23.7255068,22.4357165 C20.0252781,22.8172636 16.3215539,22.988935 12.601351,22.951723 C12.2607902,22.9482499 12.2597914,22.421824 12.601351,22.4252971" id="Fill-46" fill="#E5371F"></path>
                                <g id="Group-56" transform="translate(35.454283, 75.913494)">
                                    <mask id="mask-20" fill="white">
                                        <use xlink:href="#path-19"></use>
                                    </mask>
                                    <g id="Clip-55"></g>
                                    <polygon id="Fill-54" fill="#38173E" mask="url(#mask-20)" points="2.66246684 0.282662431 0.139719836 0.282662431 12.9212385 37.2123577 14.7708535 37.2123577"></polygon>
                                </g>
                                <g id="Group-59" transform="translate(30.960078, 75.913494)">
                                    <mask id="mask-22" fill="white">
                                        <use xlink:href="#path-21"></use>
                                    </mask>
                                    <g id="Clip-58"></g>
                                    <polygon id="Fill-57" fill="#38173E" mask="url(#mask-22)" points="2.95214332 0.282662431 0.429396309 0.282662431 9.51118567 37.2123577 11.3613 37.2123577"></polygon>
                                </g>
                                <g id="Group-62" transform="translate(5.992273, 75.913494)">
                                    <mask id="mask-24" fill="white">
                                        <use xlink:href="#path-23"></use>
                                    </mask>
                                    <g id="Clip-61"></g>
                                    <polygon id="Fill-60" fill="#38173E" mask="url(#mask-24)" points="12.5540121 0.282662431 15.0767591 0.282662431 2.29524037 37.2123577 0.445625382 37.2123577"></polygon>
                                </g>
                                <g id="Group-65" transform="translate(13.981971, 75.913494)">
                                    <mask id="mask-26" fill="white">
                                        <use xlink:href="#path-25"></use>
                                    </mask>
                                    <g id="Clip-64"></g>
                                    <polygon id="Fill-63" fill="#38173E" mask="url(#mask-26)" points="8.76884289 0.282662431 11.2915899 0.282662431 2.20980054 37.2123577 0.359686198 37.2123577"></polygon>
                                </g>
                                <path d="M15.61891,43.2151016 L3.54597759,43.2151016 C1.30137193,43.2151016 -0.377962631,45.2617621 0.0739546382,47.4463552 L3.47207289,63.8732251 C4.90722231,70.81004 10.6303426,76.0936494 17.7077165,76.9356331 C26.8649087,78.0247046 39.668399,78.3467125 50.2252863,74.091147 L35.2426059,74.091147 C30.9336622,74.091147 27.0291968,71.5676766 25.2834479,67.6534692 L15.61891,43.2151016 Z" id="Fill-66" fill="#00AFD1"></path>
                                <path d="M14.3832034,43.2151016 L14.3832034,43.2151016 C16.3167102,43.2151016 18.0709482,44.3428736 18.8629269,46.0963035 L28.8959897,68.3059198 C29.9561227,70.6522611 32.3030963,72.1620764 34.891259,72.1620764 L49.639242,72.1620764 C50.166562,72.1620764 50.655931,72.5198079 50.7408215,73.0373029 C50.8481831,73.6971959 50.3393392,74.2667877 49.6956692,74.2667877 L31.2334756,74.2667877 C29.3623883,74.2667877 27.668073,73.1692815 26.913546,71.4679484 L14.3832034,43.2151016 Z" id="Fill-68" fill="#9EDFE9"></path>
                            </g>
                            <polygon id="Fill-47" fill="#38173E" transform="translate(69.273175, 129.666491) scale(-1, 1) translate(-69.273175, -129.666491) " points="77.7367862 126.113984 77.7647252 133.218997 74.4818929 133.218997 74.4818929 131.134139 70.5031256 133.218997 60.846392 133.218997 60.7816243 130.87643 69.1938026 128.004273 72.0397705 126.113984"></polygon>
                            <polygon id="Fill-47-Copy" fill="#38173E" transform="translate(86.703199, 128.334301) scale(-1, 1) translate(-86.703199, -128.334301) " points="94.7213576 125.225858 94.7478261 131.442744 91.6377745 131.442744 91.6377745 129.618493 87.868416 131.442744 78.7199315 131.442744 78.6585726 129.392998 86.6280047 126.879861 89.3241848 125.225858"></polygon>
                            <path d="M42.9594981,0 L27.6544478,0 C26.6975833,0 25.9215751,0.705313064 25.9215751,1.57500607 L25.9215751,10.4587645 C25.9215751,11.3291816 26.6975833,12.0337705 27.6544478,12.0337705 L29.6669703,12.0337705 L31.3058296,14.9477128 C31.4189643,15.1482998 31.7344666,15.1482998 31.8476013,14.9477128 L33.4848672,12.0337705 L42.9594981,12.0337705 C43.9163625,12.0337705 44.6923708,11.3291816 44.6923708,10.4587645 L44.6923708,1.57500607 C44.6923708,0.705313064 43.9163625,0 42.9594981,0" id="Fill-46" fill="#57BBF9"></path>
                            <ellipse id="Oval" fill="#FFFFFF" transform="translate(39.776210, 5.772823) scale(-1, -1) translate(-39.776210, -5.772823) " cx="39.77621" cy="5.77282322" rx="1.34077112" ry="1.33218997"></ellipse>
                            <ellipse id="Oval-Copy" fill="#FFFFFF" transform="translate(35.306973, 5.772823) scale(-1, -1) translate(-35.306973, -5.772823) " cx="35.3069729" cy="5.77282322" rx="1.34077112" ry="1.33218997"></ellipse>
                            <ellipse id="Oval-Copy-7" fill="#FFFFFF" transform="translate(30.837736, 5.772823) scale(-1, -1) translate(-30.837736, -5.772823) " cx="30.8377358" cy="5.77282322" rx="1.34077112" ry="1.33218997"></ellipse>
                        </g>
                        <g id="Group-4" stroke="none" stroke-width="1" fill-rule="evenodd" transform="translate(205.286957, 272.319261)">
                            <path d="M14.4294521,29.6042216 L6.75291204,24.0092494 C-1.45699377,19.356657 -2.18095651,16.7516145 4.5810238,16.1941217 C11.3430041,15.636629 14.6258136,20.1066623 14.4294521,29.6042216 Z" id="Path-5" fill="#63B551"></path>
                            <path d="M13.5354037,23.3505597 C17.4245386,18.5236059 18.8859035,14.9900293 17.9194984,12.7498299 C16.4698908,9.38953094 16.1036327,7.1286121 16.9509159,6.5428847 C17.5157714,6.15239977 19.0937531,7.02366452 21.684861,9.15667895 C21.8328171,8.95239227 22.2508233,7.74547026 22.9388795,5.53591292 C23.9709639,2.22157691 26.5840214,-0.719219246 28.7740698,0.15628496 C30.9641182,1.03178917 27.9193833,5.07526992 26.3397078,6.5428847 C24.7600322,8.01049949 25.9297763,8.76991474 27.1398281,8.01049949 C28.3498799,7.25108424 30.8065836,7.25108424 31.2406448,8.01049949 C31.674706,8.76991474 32.5947953,10.9771251 27.1398281,13.8621795 C21.684861,16.7472339 21.3921863,17.1243551 22.1738773,18.2690263 C22.9555682,19.4136975 25.1718149,18.5869234 25.1718149,20.5592951 C25.1718149,22.5316668 16.3612364,26.2782917 14.9894057,28.9514675 C14.0748518,30.7335847 13.5901845,28.8666154 13.5354037,23.3505597 Z" id="Path-7" fill="#7EE767"></path>
                        </g>
                    </g>
                </g>
            </g>
        </g>
    </g>
</svg>