<?xml version="1.0" encoding="UTF-8"?>
<svg width="414px" height="896px" viewBox="0 0 414 896" version="1.1" xmlns="http://www.w3.org/2000/svg" xmlns:xlink="http://www.w3.org/1999/xlink">
    <!-- Generator: Sketch 54.1 (76490) - https://sketchapp.com -->
    <title>Group 2</title>
    <desc>Created with Sketch.</desc>
    <defs>
        <polygon id="path-1" points="1 361 507.960573 361 507.960573 0.163559871 1 0.163559871"></polygon>
    </defs>
    <g id="Page-1" stroke="none" stroke-width="1" fill="none" fill-rule="evenodd">
        <g id="07_Screen_Chat_Detail">
            <g id="Group-2" transform="translate(-58.000000, -3.000000)">
                <rect id="Rectangle" fill="#FAFAFA" x="58" y="0" width="417" height="923"></rect>
                <g id="Group-82" transform="translate(0.000000, 467.000000)">
                    <g id="Group-10">
                        <path d="M385.961216,315.690557 L382.907826,315.690557 L382.907826,168.155173 L385.961216,164.809497 L385.961216,315.690557 Z M303.54305,169.657879 L332.954015,169.657879 L332.954015,166.658308 L303.54305,166.658308 L303.54305,169.657879 Z M303.54305,175.65264 L332.954015,175.65264 L332.954015,172.648688 L303.54305,172.648688 L303.54305,175.65264 Z M303.54305,181.643021 L332.954015,181.643021 L332.954015,178.64491 L303.54305,178.64491 L303.54305,181.643021 Z M303.54305,187.637782 L332.954015,187.637782 L332.954015,184.639671 L303.54305,184.639671 L303.54305,187.637782 Z M303.54305,193.635464 L332.954015,193.635464 L332.954015,190.637353 L303.54305,190.637353 L303.54305,193.635464 Z M303.54305,199.630225 L332.954015,199.630225 L332.954015,196.626273 L303.54305,196.626273 L303.54305,199.630225 Z M303.54305,205.626447 L332.954015,205.626447 L332.954015,202.622495 L303.54305,202.622495 L303.54305,205.626447 Z M303.54305,211.616827 L332.954015,211.616827 L332.954015,208.617256 L303.54305,208.617256 L303.54305,211.616827 Z M303.54305,217.613049 L332.954015,217.613049 L332.954015,214.614938 L303.54305,214.614938 L303.54305,217.613049 Z M303.54305,223.60781 L332.954015,223.60781 L332.954015,220.603858 L303.54305,220.603858 L303.54305,223.60781 Z M303.54305,229.605492 L332.954015,229.605492 L332.954015,226.60008 L303.54305,226.60008 L303.54305,229.605492 Z M389.96085,200.138429 L439.213739,200.138429 L439.213739,334.480958 L223.642362,334.480958 L223.642362,274.115682 L257.765565,274.115682 L298.378134,274.115682 L298.378134,163.289267 L303.458356,163.289267 L318.246342,149.544396 L332.954015,163.289267 L338.118932,163.289267 L338.118932,245.412386 L358.431057,245.412386 L358.431057,188.109477 L389.96085,153.647996 L389.96085,200.138429 Z M163.31973,333.201978 L163.31973,166.417641 L160.2678,170.116723 L160.2678,333.201978 L163.31973,333.201978 Z M80.9030248,171.777148 L110.312529,171.777148 L110.312529,168.46214 L80.9030248,168.46214 L80.9030248,171.777148 Z M80.9030248,178.404243 L110.312529,178.404243 L110.312529,175.084854 L80.9030248,175.084854 L80.9030248,178.404243 Z M80.9030248,185.025497 L110.312529,185.025497 L110.312529,181.710489 L80.9030248,181.710489 L80.9030248,185.025497 Z M80.9030248,191.654053 L110.312529,191.654053 L110.312529,188.339045 L80.9030248,188.339045 L80.9030248,191.654053 Z M80.9030248,198.281148 L110.312529,198.281148 L110.312529,194.96614 L80.9030248,194.96614 L80.9030248,198.281148 Z M80.9030248,204.909704 L110.312529,204.909704 L110.312529,201.588855 L80.9030248,201.588855 L80.9030248,204.909704 Z M80.9030248,211.5368 L110.312529,211.5368 L110.312529,208.217411 L80.9030248,208.217411 L80.9030248,211.5368 Z M80.9030248,218.159514 L110.312529,218.159514 L110.312529,214.844506 L80.9030248,214.844506 L80.9030248,218.159514 Z M80.9030248,224.78661 L110.312529,224.78661 L110.312529,221.473062 L80.9030248,221.473062 L80.9030248,224.78661 Z M80.9030248,231.415165 L110.312529,231.415165 L110.312529,228.094316 L80.9030248,228.094316 L80.9030248,231.415165 Z M80.9030248,238.042261 L110.312529,238.042261 L110.312529,234.722872 L80.9030248,234.722872 L80.9030248,238.042261 Z M167.319364,205.470481 L216.572253,205.470481 L216.572253,353.972621 L0.999415899,353.972621 L0.999415899,287.246035 L35.1226187,287.246035 L75.736648,287.246035 L75.736648,164.738232 L80.8168698,164.738232 L95.6033963,149.544688 L110.312529,164.738232 L115.477446,164.738232 L115.477446,255.516881 L135.789571,255.516881 L135.789571,192.17394 L167.319364,154.080554 L167.319364,205.470481 Z" id="Fill-4" fill="#E9F9FF"></path>
                        <mask id="mask-2" fill="white">
                            <use xlink:href="#path-1"></use>
                        </mask>
                        <g id="Clip-7"></g>
                        <path d="M331.110737,316.527779 L337.3504,316.527779 L337.3504,310.293519 L331.110737,310.293519 L331.110737,316.527779 Z M331.110737,329.009442 L337.3504,329.009442 L337.3504,322.775182 L331.110737,322.775182 L331.110737,329.009442 Z M331.110737,341.491104 L337.3504,341.491104 L337.3504,335.256845 L331.110737,335.256845 L331.110737,341.491104 Z M331.110737,353.972767 L337.3504,353.972767 L337.3504,347.738507 L331.110737,347.738507 L331.110737,353.972767 Z M319.551371,316.527779 L325.785193,316.527779 L325.785193,310.293519 L319.551371,310.293519 L319.551371,316.527779 Z M319.551371,329.009442 L325.785193,329.009442 L325.785193,322.775182 L319.551371,322.775182 L319.551371,329.009442 Z M319.551371,341.491104 L325.785193,341.491104 L325.785193,335.256845 L319.551371,335.256845 L319.551371,341.491104 Z M319.551371,353.972767 L325.785193,353.972767 L325.785193,347.738507 L319.551371,347.738507 L319.551371,353.972767 Z M307.986164,316.527779 L314.218525,316.527779 L314.218525,310.293519 L307.986164,310.293519 L307.986164,316.527779 Z M307.986164,329.009442 L314.218525,329.009442 L314.218525,322.775182 L307.986164,322.775182 L307.986164,329.009442 Z M307.986164,341.491104 L314.218525,341.491104 L314.218525,335.256845 L307.986164,335.256845 L307.986164,341.491104 Z M307.986164,353.972767 L314.218525,353.972767 L314.218525,347.738507 L307.986164,347.738507 L307.986164,353.972767 Z M144.335559,231.597856 L150.326979,231.597856 L150.326979,225.600174 L144.335559,225.600174 L144.335559,231.597856 Z M144.335559,241.589612 L150.326979,241.589612 L150.326979,235.597771 L144.335559,235.597771 L144.335559,241.589612 Z M144.335559,251.59159 L150.326979,251.59159 L150.326979,245.592447 L144.335559,245.592447 L144.335559,251.59159 Z M144.335559,261.584806 L150.326979,261.584806 L150.326979,255.592965 L144.335559,255.592965 L144.335559,261.584806 Z M132.93682,221.597338 L138.934081,221.597338 L138.934081,215.599656 L132.93682,215.599656 L132.93682,221.597338 Z M132.93682,231.597856 L138.934081,231.597856 L138.934081,225.600174 L132.93682,225.600174 L132.93682,231.597856 Z M132.93682,241.589612 L138.934081,241.589612 L138.934081,235.597771 L132.93682,235.597771 L132.93682,241.589612 Z M132.93682,251.59159 L138.934081,251.59159 L138.934081,245.592447 L132.93682,245.592447 L132.93682,251.59159 Z M132.93682,261.584806 L138.934081,261.584806 L138.934081,255.592965 L132.93682,255.592965 L132.93682,261.584806 Z M121.543923,221.597338 L127.535343,221.597338 L127.535343,215.599656 L121.543923,215.599656 L121.543923,221.597338 Z M121.543923,231.597856 L127.535343,231.597856 L127.535343,225.600174 L121.543923,225.600174 L121.543923,231.597856 Z M121.543923,241.589612 L127.535343,241.589612 L127.535343,235.597771 L121.543923,235.597771 L121.543923,241.589612 Z M121.543923,251.59159 L127.535343,251.59159 L127.535343,245.592447 L121.543923,245.592447 L121.543923,251.59159 Z M121.543923,261.584806 L127.535343,261.584806 L127.535343,255.592965 L121.543923,255.592965 L121.543923,261.584806 Z M110.145184,221.597338 L116.143906,221.597338 L116.143906,215.599656 L110.145184,215.599656 L110.145184,221.597338 Z M110.145184,231.597856 L116.143906,231.597856 L116.143906,225.600174 L110.145184,225.600174 L110.145184,231.597856 Z M110.145184,241.589612 L116.143906,241.589612 L116.143906,235.597771 L110.145184,235.597771 L110.145184,241.589612 Z M110.145184,251.59159 L116.143906,251.59159 L116.143906,245.592447 L110.145184,245.592447 L110.145184,251.59159 Z M110.145184,261.584806 L116.143906,261.584806 L116.143906,255.592965 L110.145184,255.592965 L110.145184,261.584806 Z M25.3584879,229.373734 L45.5012241,229.373734 L45.5012241,227.035704 L25.3584879,227.035704 L25.3584879,229.373734 Z M25.3584879,234.782892 L45.5012241,234.782892 L45.5012241,232.443402 L25.3584879,232.443402 L25.3584879,234.782892 Z M25.3584879,240.197892 L45.5012241,240.197892 L45.5012241,237.859862 L25.3584879,237.859862 L25.3584879,240.197892 Z M25.3584879,245.607051 L45.5012241,245.607051 L45.5012241,243.269021 L25.3584879,243.269021 L25.3584879,245.607051 Z M25.3584879,251.01767 L45.5012241,251.01767 L45.5012241,248.67964 L25.3584879,248.67964 L25.3584879,251.01767 Z M25.3584879,256.43413 L45.5012241,256.43413 L45.5012241,254.0961 L25.3584879,254.0961 L25.3584879,256.43413 Z M25.3584879,261.841828 L45.5012241,261.841828 L45.5012241,259.503799 L25.3584879,259.503799 L25.3584879,261.841828 Z M25.3584879,267.250987 L45.5012241,267.250987 L45.5012241,264.912957 L25.3584879,264.912957 L25.3584879,267.250987 Z M25.3584879,272.667447 L45.5012241,272.667447 L45.5012241,270.329417 L25.3584879,270.329417 L25.3584879,272.667447 Z M25.3584879,278.075146 L45.5012241,278.075146 L45.5012241,275.737116 L25.3584879,275.737116 L25.3584879,278.075146 Z M25.3584879,283.484304 L45.5012241,283.484304 L45.5012241,281.146274 L25.3584879,281.146274 L25.3584879,283.484304 Z M25.3584879,288.900765 L45.5012241,288.900765 L45.5012241,286.562735 L25.3584879,286.562735 L25.3584879,288.900765 Z M25.3584879,294.309923 L45.5012241,294.309923 L45.5012241,291.971893 L25.3584879,291.971893 L25.3584879,294.309923 Z M309.498986,304.520732 L309.498986,199.448119 L304.764844,199.448119 L304.764844,188.816727 L268.140228,188.816727 L268.140228,199.448119 L263.433831,199.448119 L263.433831,331.543159 L229.062385,331.543159 L229.062385,271.721137 L179.009277,271.721137 L179.009277,350.219652 L154.82748,350.219652 L154.82748,209.607816 L105.523482,209.607816 L105.523482,317.63911 L99.7379579,317.63911 L99.7379579,253.332334 L90.8187298,253.332334 L65.9549942,240.197892 L65.9549942,253.332334 L60.5170104,253.332334 L60.5170104,332.752334 L48.445095,332.752334 L48.445095,225.198576 L36.2359159,225.198576 L36.2359159,187.465898 L34.5639257,187.465898 L34.5639257,225.198576 L22.3547465,225.198576 L22.3547465,361 L340.34684,361 L340.34684,304.520732 L309.498986,304.520732 Z" id="Fill-6" fill="#D8F4FF" mask="url(#mask-2)"></path>
                        <path d="M478.221051,305.099033 L483.607926,305.099033 L483.607926,299.716161 L478.221051,299.716161 L478.221051,305.099033 Z M478.221051,315.875 L483.607926,315.875 L483.607926,310.492128 L478.221051,310.492128 L478.221051,315.875 Z M478.221051,326.650967 L483.607926,326.650967 L483.607926,321.268095 L478.221051,321.268095 L478.221051,326.650967 Z M478.221051,337.425473 L483.607926,337.425473 L483.607926,332.042601 L478.221051,332.042601 L478.221051,337.425473 Z M468.243139,305.099033 L473.624173,305.099033 L473.624173,299.716161 L468.243139,299.716161 L468.243139,305.099033 Z M468.243139,315.875 L473.624173,315.875 L473.624173,310.492128 L468.243139,310.492128 L468.243139,315.875 Z M468.243139,326.650967 L473.624173,326.650967 L473.624173,321.268095 L468.243139,321.268095 L468.243139,326.650967 Z M468.243139,337.425473 L473.624173,337.425473 L473.624173,332.042601 L468.243139,332.042601 L468.243139,337.425473 Z M458.257926,305.099033 L463.640421,305.099033 L463.640421,299.716161 L458.257926,299.716161 L458.257926,305.099033 Z M458.257926,315.875 L463.640421,315.875 L463.640421,310.492128 L458.257926,310.492128 L458.257926,315.875 Z M458.257926,326.650967 L463.640421,326.650967 L463.640421,321.268095 L458.257926,321.268095 L458.257926,326.650967 Z M458.257926,337.425473 L463.640421,337.425473 L463.640421,332.042601 L458.257926,332.042601 L458.257926,337.425473 Z M290.593085,231.597856 L296.584505,231.597856 L296.584505,225.600174 L290.593085,225.600174 L290.593085,231.597856 Z M290.593085,241.589612 L296.584505,241.589612 L296.584505,235.597771 L290.593085,235.597771 L290.593085,241.589612 Z M290.593085,251.59159 L296.584505,251.59159 L296.584505,245.592447 L290.593085,245.592447 L290.593085,251.59159 Z M290.593085,261.584806 L296.584505,261.584806 L296.584505,255.592965 L290.593085,255.592965 L290.593085,261.584806 Z M279.195806,221.597338 L285.193067,221.597338 L285.193067,215.599656 L279.195806,215.599656 L279.195806,221.597338 Z M279.195806,231.597856 L285.193067,231.597856 L285.193067,225.600174 L279.195806,225.600174 L279.195806,231.597856 Z M279.195806,241.589612 L285.193067,241.589612 L285.193067,235.597771 L279.195806,235.597771 L279.195806,241.589612 Z M279.195806,251.59159 L285.193067,251.59159 L285.193067,245.592447 L279.195806,245.592447 L279.195806,251.59159 Z M279.195806,261.584806 L285.193067,261.584806 L285.193067,255.592965 L279.195806,255.592965 L279.195806,261.584806 Z M267.802909,221.597338 L273.794329,221.597338 L273.794329,215.599656 L267.802909,215.599656 L267.802909,221.597338 Z M267.802909,231.597856 L273.794329,231.597856 L273.794329,225.600174 L267.802909,225.600174 L267.802909,231.597856 Z M267.802909,241.589612 L273.794329,241.589612 L273.794329,235.597771 L267.802909,235.597771 L267.802909,241.589612 Z M267.802909,251.59159 L273.794329,251.59159 L273.794329,245.592447 L267.802909,245.592447 L267.802909,251.59159 Z M267.802909,261.584806 L273.794329,261.584806 L273.794329,255.592965 L267.802909,255.592965 L267.802909,261.584806 Z M256.404171,221.597338 L262.401431,221.597338 L262.401431,215.599656 L256.404171,215.599656 L256.404171,221.597338 Z M256.404171,231.597856 L262.401431,231.597856 L262.401431,225.600174 L256.404171,225.600174 L256.404171,231.597856 Z M256.404171,241.589612 L262.401431,241.589612 L262.401431,235.597771 L256.404171,235.597771 L256.404171,241.589612 Z M256.404171,251.59159 L262.401431,251.59159 L262.401431,245.592447 L256.404171,245.592447 L256.404171,251.59159 Z M256.404171,261.584806 L262.401431,261.584806 L262.401431,255.592965 L256.404171,255.592965 L256.404171,261.584806 Z M171.616014,229.373734 L191.76021,229.373734 L191.76021,227.035704 L171.616014,227.035704 L171.616014,229.373734 Z M171.616014,234.782892 L191.76021,234.782892 L191.76021,232.443402 L171.616014,232.443402 L171.616014,234.782892 Z M171.616014,240.197892 L191.76021,240.197892 L191.76021,237.859862 L171.616014,237.859862 L171.616014,240.197892 Z M171.616014,245.607051 L191.76021,245.607051 L191.76021,243.269021 L171.616014,243.269021 L171.616014,245.607051 Z M171.616014,251.01767 L191.76021,251.01767 L191.76021,248.67964 L171.616014,248.67964 L171.616014,251.01767 Z M171.616014,256.43413 L191.76021,256.43413 L191.76021,254.0961 L171.616014,254.0961 L171.616014,256.43413 Z M171.616014,261.841828 L191.76021,261.841828 L191.76021,259.503799 L171.616014,259.503799 L171.616014,261.841828 Z M171.616014,267.250987 L191.76021,267.250987 L191.76021,264.912957 L171.616014,264.912957 L171.616014,267.250987 Z M171.616014,272.667447 L191.76021,272.667447 L191.76021,270.329417 L171.616014,270.329417 L171.616014,272.667447 Z M171.616014,278.075146 L191.76021,278.075146 L191.76021,275.737116 L171.616014,275.737116 L171.616014,278.075146 Z M171.616014,283.484304 L191.76021,283.484304 L191.76021,281.146274 L171.616014,281.146274 L171.616014,283.484304 Z M171.616014,288.900765 L191.76021,288.900765 L191.76021,286.562735 L171.616014,286.562735 L171.616014,288.900765 Z M171.616014,294.309923 L191.76021,294.309923 L191.76021,291.971893 L171.616014,291.971893 L171.616014,294.309923 Z M455.757972,293.357771 L455.757972,199.448119 L451.02237,199.448119 L451.02237,188.816727 L414.397753,188.816727 L414.397753,199.448119 L409.691357,199.448119 L409.691357,331.543159 L375.319911,331.543159 L375.319911,271.721137 L325.268263,271.721137 L325.268263,350.219652 L301.085006,350.219652 L301.085006,209.607816 L251.782468,209.607816 L251.782468,317.63911 L245.995484,317.63911 L245.995484,253.332334 L237.076256,253.332334 L212.21252,240.197892 L212.21252,253.332334 L206.774536,253.332334 L206.774536,332.752334 L194.702621,332.752334 L194.702621,225.198576 L182.493442,225.198576 L182.493442,187.465898 L180.821452,187.465898 L180.821452,225.198576 L168.613733,225.198576 L168.613733,361 L486.604366,361 L486.604366,293.357771 L455.757972,293.357771 Z" id="Fill-8" fill="#D8F4FF" mask="url(#mask-2)"></path>
                    </g>
                    <g id="Group-75" transform="translate(113.000000, 61.000000)" fill="#C8EFFE">
                        <path d="M30.832692,2.80479651 L28.318172,4.33968023 C27.803132,4.65363372 27.123812,4.49956395 26.802652,3.99084302 C26.484452,3.48648256 26.641332,2.82369186 27.151932,2.5068314 L29.656092,0.955959302 C30.174092,0.634738372 30.860812,0.787354651 31.186412,1.29607558 C31.513492,1.80625 31.358092,2.47921512 30.840092,2.80043605 L30.832692,2.80479651 Z" id="Fill-11"></path>
                        <path d="M24.847572,6.82325581 C24.847572,6.82325581 23.709452,7.70261628 22.617212,8.64447674 C21.523492,9.57906977 20.475652,10.5659884 20.475652,10.5659884 C20.052372,10.9671512 19.377492,10.9540698 18.969012,10.5369186 C18.563492,10.1226744 18.579772,9.45988372 18.998612,9.05872093 C18.998612,9.05872093 20.071612,8.03110465 21.197892,7.05726744 C22.316772,6.08052326 23.490412,5.15901163 23.490412,5.15901163 L23.499292,5.15319767 C23.966972,4.78546512 24.650732,4.86104651 25.025172,5.32034884 C25.398132,5.78110465 25.321172,6.45116279 24.853492,6.81889535 L24.847572,6.82325581 Z" id="Fill-13"></path>
                        <path d="M17.428776,13.6180233 C17.428776,13.6180233 16.443096,14.6659884 15.504776,15.7590116 C14.563496,16.8462209 13.674016,17.9755814 13.674016,17.9755814 C13.324736,18.4174419 12.677976,18.4973837 12.226576,18.155814 C11.779616,17.8142442 11.698216,17.1790698 12.041576,16.7372093 C12.041576,16.7372093 12.950296,15.5686047 13.910816,14.4436047 C14.865416,13.3156977 15.874776,12.2299419 15.874776,12.2299419 L15.880696,12.2226744 C16.271416,11.8011628 16.935936,11.7706395 17.365136,12.155814 C17.794336,12.5395349 17.825416,13.1921512 17.433216,13.6136628 L17.428776,13.6180233 Z" id="Fill-15"></path>
                        <path d="M11.107696,21.4319767 C11.107696,21.4319767 10.286296,22.6093023 9.522616,23.8258721 C8.754496,25.0366279 8.050016,26.2837209 8.050016,26.2837209 C7.782136,26.7561047 7.176816,26.9261628 6.695816,26.6645349 C6.216296,26.402907 6.044616,25.8069767 6.306576,25.3360465 C6.306576,25.3360465 7.024376,24.0438953 7.808776,22.7909884 C8.582816,21.5366279 9.420496,20.3171512 9.420496,20.3171512 L9.427896,20.3098837 C9.741656,19.8520349 10.373616,19.7328488 10.838336,20.0409884 C11.303056,20.3491279 11.425896,20.9697674 11.110656,21.4261628 L11.107696,21.4319767 Z" id="Fill-17"></path>
                        <path d="M6.070072,30.0854651 C6.070072,30.0854651 5.454392,31.3747093 4.918632,32.6988372 C4.375472,34.0186047 3.921112,35.3659884 3.921112,35.3659884 C3.755352,35.8616279 3.210712,36.1290698 2.706032,35.9662791 C2.204312,35.8034884 1.931992,35.2671512 2.094792,34.7744186 C2.094792,34.7744186 2.558032,33.3674419 3.111552,31.9953488 C3.656192,30.6232558 4.283712,29.284593 4.283712,29.284593 L4.289632,29.2729651 C4.517552,28.7889535 5.100672,28.5781977 5.592032,28.8005814 C6.084872,29.0244186 6.299472,29.597093 6.073032,30.0796512 L6.070072,30.0854651 Z" id="Fill-19"></path>
                        <path d="M2.754576,39.4536337 C2.754576,39.4536337 2.679096,39.8010174 2.565136,40.3228198 C2.457096,40.8417151 2.328336,41.5364826 2.224736,42.2356105 C2.008656,43.6324128 1.924296,45.037936 1.924296,45.037936 C1.894696,45.5393895 1.456616,45.924564 0.946016,45.8940407 C0.436896,45.8664244 0.047656,45.4318314 0.072816,44.9332849 C0.072816,44.9332849 0.151256,43.4434593 0.368816,41.9725291 C0.473896,41.2385174 0.604136,40.5074128 0.713656,39.9609012 C0.827616,39.4202035 0.903096,39.0582849 0.903096,39.0582849 C1.008176,38.5553779 1.509896,38.23125 2.021976,38.3344477 C2.535536,38.4390988 2.864096,38.9318314 2.759016,39.4332849 L2.757536,39.4405523 L2.754576,39.4536337 Z" id="Fill-21"></path>
                        <path d="M1.96396,49.2427326 C1.96396,49.2427326 1.99948,49.5930233 2.05424,50.1206395 C2.11492,50.6409884 2.21704,51.3343023 2.3532,52.0203488 C2.61516,53.3968023 3.05472,54.7267442 3.05472,54.7267442 C3.20716,55.1875 2.95112,55.6831395 2.48196,55.8313953 C2.01428,55.9811047 1.51256,55.7311047 1.35864,55.2732558 L1.35568,55.2645349 C1.35568,55.2645349 0.8732,53.8372093 0.58164,52.3648256 C0.43216,51.630814 0.31672,50.8909884 0.24716,50.3328488 C0.18648,49.7790698 0.14652,49.4098837 0.14652,49.4098837 C0.09176,48.9171512 0.45436,48.4767442 0.95608,48.4229651 C1.4578,48.369186 1.90772,48.7267442 1.961,49.2180233 L1.96248,49.2238372 L1.96396,49.2427326 Z" id="Fill-23"></path>
                        <path d="M4.704328,58.5747093 C4.704328,58.5747093 4.878968,58.8813953 5.140928,59.3421512 C5.407328,59.7956395 5.784728,60.3886628 6.193208,60.9613372 C7.001288,62.1139535 7.955888,63.1590116 7.955888,63.1590116 C8.272608,63.5063953 8.243008,64.0383721 7.890768,64.3494186 C7.538528,64.6590116 6.999808,64.6313953 6.681608,64.2898256 L6.674208,64.2796512 C6.674208,64.2796512 5.648568,63.172093 4.772408,61.9424419 C4.331368,61.3305233 3.921408,60.6968023 3.631328,60.2127907 C3.350128,59.7258721 3.163648,59.4017442 3.163648,59.4017442 C2.923888,58.9889535 3.071888,58.4613372 3.493688,58.2273256 C3.915488,57.9918605 4.451248,58.1372093 4.691008,58.5514535 L4.693968,58.5572674 L4.704328,58.5747093 Z" id="Fill-25"></path>
                        <path d="M11.036952,66.0827035 C11.036952,66.0827035 11.318152,66.3050872 11.739952,66.637936 C12.161752,66.9649709 12.738952,67.3864826 13.332432,67.7876453 C14.514952,68.5957849 15.769992,69.2992733 15.769992,69.2992733 C16.165152,69.5202035 16.302792,70.0143895 16.076352,70.4024709 C15.851392,70.7890988 15.352632,70.9242733 14.957472,70.7077035 L14.950072,70.7018895 C14.950072,70.7018895 13.637312,69.9780523 12.391152,69.1393895 C11.766592,68.7222384 11.156832,68.2832849 10.706912,67.9417151 C10.265872,67.5972384 9.969872,67.3661337 9.969872,67.3661337 C9.605792,67.08125 9.545112,66.5609012 9.835192,66.203343 C10.123792,65.8443314 10.655112,65.7847384 11.019192,66.0696221 L11.025112,66.0725291 L11.036952,66.0827035 Z" id="Fill-27"></path>
                        <path d="M19.62998,71.2252907 C19.62998,71.2252907 20.95162,71.8037791 22.31766,72.2790698 C23.67778,72.7630814 25.0749,73.1380814 25.0749,73.1380814 C25.49374,73.2514535 25.7409,73.6773256 25.62546,74.0886628 C25.5115,74.497093 25.07638,74.7383721 24.65902,74.6293605 C24.65902,74.6293605 23.20566,74.25 21.78634,73.755814 C20.3685,73.2761628 18.98914,72.6831395 18.98914,72.6831395 L18.97582,72.6773256 C18.56734,72.5014535 18.38086,72.0334302 18.55994,71.6322674 C18.73902,71.2296512 19.21558,71.0465116 19.62406,71.2238372 L19.62998,71.2252907 Z" id="Fill-29"></path>
                        <path d="M29.307108,74.0542151 C29.307108,74.0542151 30.735308,74.2896802 32.181268,74.4117733 C33.622788,74.5440407 35.070228,74.5614826 35.070228,74.5614826 C35.484628,74.565843 35.816148,74.9001453 35.811708,75.3056686 C35.807268,75.7111919 35.463908,76.0353198 35.052468,76.0324128 C35.052468,76.0324128 33.548788,76.0265988 32.051028,75.9001453 C30.554748,75.7838663 29.070308,75.5513081 29.070308,75.5513081 L29.056988,75.5484012 C28.636668,75.4815407 28.351028,75.0934593 28.417628,74.6806686 C28.485708,74.2678779 28.880868,73.9873547 29.301188,74.0542151 L29.307108,74.0542151 Z" id="Fill-31"></path>
                        <path d="M39.403372,74.3912791 C39.403372,74.3912791 40.846372,74.2619186 42.274572,74.0133721 C43.704252,73.777907 45.107292,73.4247093 45.107292,73.4247093 C45.489132,73.3302326 45.876892,73.5555233 45.974572,73.9305233 C46.070772,74.3026163 45.838412,74.6834302 45.459532,74.780814 C45.459532,74.780814 44.006172,75.1572674 42.526172,75.4130814 C41.052092,75.6790698 39.555812,75.8244186 39.555812,75.8244186 L39.542492,75.8258721 C39.139932,75.8651163 38.780292,75.5758721 38.740332,75.1790698 C38.700372,74.7851744 38.994892,74.4305233 39.398932,74.3912791 L39.403372,74.3912791 Z" id="Fill-33"></path>
                        <path d="M49.245224,72.1514535 C49.245224,72.1514535 50.602384,71.6543605 51.909224,71.0380814 C53.219024,70.4348837 54.451864,69.7023256 54.451864,69.7023256 C54.770064,69.5119186 55.187424,69.6122093 55.381304,69.9261628 C55.572224,70.2401163 55.467144,70.6485465 55.150424,70.840407 C55.150424,70.840407 53.862824,71.6165698 52.504184,72.2531977 C51.154424,72.902907 49.749904,73.4276163 49.749904,73.4276163 L49.736584,73.4319767 C49.376944,73.5671512 48.974384,73.3898256 48.838224,73.0351744 C48.700584,72.6819767 48.881144,72.2880814 49.240784,72.152907 L49.245224,72.1514535 Z" id="Fill-35"></path>
                        <path d="M57.918616,67.2274709 C57.918616,67.2274709 58.180576,66.9861919 58.572776,66.6257267 C58.956096,66.2609012 59.441536,65.7521802 59.885536,65.2100291 C60.788336,64.1359012 61.420296,62.8975291 61.420296,62.8975291 C61.578656,62.5864826 61.963456,62.4600291 62.280176,62.6155523 C62.596896,62.7696221 62.725656,63.1460756 62.570256,63.4571221 L62.567296,63.4643895 C62.567296,63.4643895 61.879096,64.8364826 60.905256,66.0094477 C60.427216,66.6010174 59.906256,67.153343 59.497776,67.5472384 C59.086336,67.9309593 58.812536,68.1867733 58.812536,68.1867733 C58.546136,68.4338663 58.127296,68.4236919 57.875696,68.1635174 C57.624096,67.9018895 57.635936,67.4905523 57.900856,67.2434593 L57.903816,67.2405523 L57.918616,67.2274709 Z" id="Fill-37"></path>
                        <path d="M62.628864,58.9799419 C62.628864,58.9799419 62.674744,58.6180233 62.696944,58.1136628 C62.720624,57.5976744 62.707304,56.905814 62.628864,56.2168605 C62.488264,54.8331395 62.059064,53.4901163 62.059064,53.4901163 C61.958424,53.1761628 62.136024,52.8418605 62.457184,52.7430233 C62.775384,52.6456395 63.114304,52.8171512 63.214944,53.1296512 L63.220864,53.1456395 C63.220864,53.1456395 63.691504,54.5758721 63.855784,56.081686 C63.946064,56.831686 63.965304,57.5918605 63.944584,58.1601744 C63.920904,58.7415698 63.876504,59.0991279 63.876504,59.0991279 L63.873544,59.1325581 C63.830624,59.4697674 63.518344,59.709593 63.173504,59.6674419 C62.830144,59.6267442 62.585944,59.3186047 62.628864,58.9813953 L62.628864,58.9799419 Z" id="Fill-39"></path>
                        <path d="M60.329388,49.7090116 C60.329388,49.7090116 60.122188,49.3979651 59.808428,49.0069767 C59.488748,48.5985465 59.016628,48.0883721 58.494188,47.6290698 C57.456708,46.6959302 56.191308,46.0593023 56.191308,46.0593023 C55.911588,45.918314 55.799108,45.5796512 55.942668,45.3034884 C56.087708,45.0287791 56.428108,44.9197674 56.709308,45.0578488 L56.724108,45.0665698 C56.724108,45.0665698 58.110868,45.7497093 59.266748,46.7744186 C59.848388,47.2773256 60.372308,47.8398256 60.731948,48.2875 C61.103428,48.7482558 61.301748,49.0447674 61.301748,49.0447674 L61.320988,49.0738372 C61.500068,49.3427326 61.421628,49.7031977 61.149308,49.8776163 C60.875508,50.0534884 60.508468,49.977907 60.329388,49.7090116 Z" id="Fill-41"></path>
                        <path d="M52.188648,44.6892442 C52.188648,44.6892442 51.833448,44.6281977 51.302128,44.5380814 C50.770808,44.459593 50.057448,44.3854651 49.338168,44.3520349 C47.901088,44.2764535 46.456608,44.3927326 46.456608,44.3927326 C46.162088,44.4159884 45.903088,44.2008721 45.879408,43.9101744 C45.854248,43.6223837 46.071808,43.3694767 46.364848,43.343314 L46.375208,43.3418605 C46.375208,43.3418605 47.875928,43.2110465 49.387008,43.280814 C50.143288,43.3098837 50.896608,43.3840116 51.460488,43.4639535 C52.019928,43.5540698 52.391408,43.6151163 52.391408,43.6151163 C52.694808,43.6630814 52.900528,43.9450581 52.850208,44.2430233 C52.799888,44.5395349 52.514248,44.7415698 52.210848,44.6921512 L52.206408,44.6921512 L52.188648,44.6892442 Z" id="Fill-43"></path>
                        <path d="M42.164608,45.0255814 C42.164608,45.0255814 40.746768,45.330814 39.355568,45.7639535 C37.964368,46.1840116 36.610168,46.7159884 36.610168,46.7159884 C36.354128,46.8162791 36.062568,46.694186 35.960448,46.4427326 C35.856848,46.1912791 35.985608,45.9049419 36.240168,45.8031977 C36.240168,45.8031977 37.622488,45.2479651 39.047728,44.8075581 C40.468528,44.3555233 41.929288,44.0284884 41.929288,44.0284884 L41.938168,44.0270349 C42.217888,43.9645349 42.497608,44.1375 42.561248,44.4122093 C42.624888,44.6883721 42.448768,44.9630814 42.167568,45.0255814 L42.164608,45.0255814 Z" id="Fill-45"></path>
                        <path d="M32.634296,48.4960756 C32.634296,48.4960756 31.336336,49.1515988 30.084256,49.8957849 C28.830696,50.6297965 27.630416,51.4481105 27.630416,51.4481105 C27.418776,51.5920058 27.128696,51.5396802 26.982176,51.3332849 C26.837136,51.1268895 26.890416,50.8420058 27.099096,50.6981105 C27.099096,50.6981105 28.317136,49.8550872 29.591416,49.0978198 C30.859776,48.3303779 32.181416,47.6530523 32.181416,47.6530523 C32.418216,47.5265988 32.711256,47.6138081 32.840016,47.8449128 C32.967296,48.0774709 32.879976,48.3667151 32.643176,48.4917151 L32.634296,48.4960756 Z" id="Fill-47"></path>
                        <path d="M24.140132,54.0453488 C24.140132,54.0453488 23.013852,54.959593 21.951212,55.9479651 C20.882652,56.9276163 19.885132,57.9784884 19.885132,57.9784884 C19.723812,58.1485465 19.451492,58.1572674 19.278332,57.9988372 C19.105172,57.840407 19.097772,57.5729651 19.257612,57.402907 C19.257612,57.402907 20.265492,56.3258721 21.345892,55.3215116 C22.418892,54.3098837 23.559972,53.3709302 23.559972,53.3709302 C23.747932,53.2110465 24.032092,53.2313953 24.194892,53.4159884 C24.356212,53.6005814 24.335492,53.8796512 24.147532,54.0395349 L24.140132,54.0453488 Z" id="Fill-49"></path>
                        <path d="M17.039388,61.2481105 C17.039388,61.2481105 16.139548,62.3789244 15.322588,63.5736919 C14.499708,64.7597384 13.768588,66.0024709 13.768588,66.0024709 C13.659068,66.187064 13.417828,66.2510174 13.229868,66.1434593 C13.041908,66.0373547 12.978268,65.7989826 13.086308,65.6143895 C13.086308,65.6143895 13.821868,64.3440407 14.652148,63.1303779 C15.472068,61.9123547 16.380788,60.7539244 16.380788,60.7539244 C16.516948,60.5736919 16.777428,60.5373547 16.960948,60.6710756 C17.144468,60.80625 17.181468,61.0606105 17.045308,61.240843 L17.039388,61.2481105 Z" id="Fill-51"></path>
                        <path d="M11.757416,69.825 C11.757416,69.825 11.149136,71.1302326 10.647416,72.4819767 C10.133856,73.8264535 9.729816,75.2072674 9.729816,75.2072674 C9.676536,75.3947674 9.476736,75.5023256 9.287296,75.4485465 C9.097856,75.3962209 8.988336,75.1985465 9.041616,75.0125 C9.041616,75.0125 9.441216,73.6055233 9.954776,72.2319767 C10.455016,70.8569767 11.064776,69.5226744 11.064776,69.5226744 C11.147656,69.3351744 11.369656,69.2479651 11.562056,69.327907 C11.754456,69.4093023 11.843256,69.6273256 11.760376,69.8162791 L11.757416,69.825 Z" id="Fill-53"></path>
                        <path d="M8.735256,79.3989826 C8.735256,79.3989826 8.474776,80.8132267 8.329736,82.2449128 C8.171376,83.6736919 8.128456,85.1111919 8.128456,85.1111919 C8.124016,85.287064 7.974536,85.4251453 7.796936,85.4193314 C7.619336,85.4149709 7.478736,85.2667151 7.483176,85.0922965 C7.483176,85.0922965 7.517216,83.6329942 7.666696,82.1795058 C7.804336,80.7274709 8.058896,79.2856105 8.058896,79.2856105 C8.088496,79.1024709 8.263136,78.9760174 8.451096,79.0050872 C8.639056,79.0356105 8.766336,79.2071221 8.736736,79.3917151 L8.735256,79.3989826 Z" id="Fill-55"></path>
                        <path d="M8.207784,89.4207849 C8.207784,89.4207849 8.303984,90.8553779 8.503784,92.284157 C8.694704,93.7114826 8.984784,95.1228198 8.984784,95.1228198 C9.015864,95.275436 8.915224,95.4251453 8.759824,95.4556686 C8.605904,95.4861919 8.453464,95.3859012 8.422384,95.2347384 C8.422384,95.2347384 8.117504,93.8088663 7.914744,92.3626453 C7.701624,90.9207849 7.593584,89.465843 7.593584,89.465843 C7.580264,89.3001453 7.704584,89.153343 7.873304,89.1402616 C8.043504,89.1242733 8.192984,89.2478198 8.207784,89.4135174 L8.207784,89.4207849 Z" id="Fill-57"></path>
                        <path d="M10.025964,99.3127907 C10.025964,99.3127907 10.474404,100.689244 10.921364,102.065698 C11.400884,103.423256 12.012124,104.731395 12.012124,104.731395 C12.071324,104.854942 12.015084,105.000291 11.889284,105.056977 C11.763484,105.113663 11.615484,105.05843 11.556284,104.936337 C11.556284,104.936337 10.924324,103.613663 10.427044,102.237209 C9.968244,100.856395 9.507964,99.4755814 9.507964,99.4755814 C9.460604,99.3360465 9.539044,99.1848837 9.681124,99.1398256 C9.824684,99.093314 9.978604,99.1688953 10.024484,99.3098837 L10.025964,99.3127907 Z" id="Fill-59"></path>
                        <path d="M14.109728,108.512064 C14.109728,108.512064 14.895608,109.72718 15.817648,110.846366 C16.724888,111.975727 17.757928,112.997529 17.757928,112.997529 C17.840808,113.080378 17.840808,113.212645 17.756448,113.294041 C17.673568,113.375436 17.537408,113.373983 17.454528,113.292587 C17.454528,113.292587 16.397808,112.263517 15.466888,111.123983 C14.524128,109.996076 13.717528,108.766424 13.717528,108.766424 C13.643528,108.661773 13.671648,108.517878 13.778208,108.445203 C13.886248,108.373983 14.032768,108.401599 14.105288,108.50625 L14.109728,108.512064 Z" id="Fill-61"></path>
                        <path d="M21.060844,115.836337 C21.060844,115.836337 22.230044,116.70843 23.483604,117.456977 C24.729764,118.220058 26.045484,118.861047 26.045484,118.861047 C26.132804,118.903198 26.168324,119.009302 26.123924,119.093605 C26.081004,119.17936 25.974444,119.212791 25.887124,119.172093 C25.887124,119.172093 24.553644,118.531105 23.288244,117.77093 C22.016924,117.022384 20.825524,116.148837 20.825524,116.148837 C20.736724,116.086337 20.717484,115.964244 20.781124,115.877035 C20.844764,115.791279 20.967604,115.769477 21.056404,115.83343 L21.060844,115.836337 Z" id="Fill-63"></path>
                        <path d="M30.08396,120.578634 C30.08396,120.578634 31.46184,121.082994 32.87524,121.48561 C34.2842,121.896948 35.7198,122.216715 35.7198,122.216715 C35.79528,122.234157 35.84264,122.305378 35.82488,122.379506 C35.8086,122.453634 35.73312,122.498692 35.65912,122.484157 C35.65912,122.484157 34.21316,122.17311 32.79236,121.766134 C31.36712,121.372238 29.97592,120.875145 29.97592,120.875145 C29.89156,120.847529 29.84716,120.757413 29.87676,120.674564 C29.90488,120.593169 29.99664,120.54811 30.081,120.57718 L30.08396,120.578634 Z" id="Fill-65"></path>
                        <path d="M40.055904,123.019913 C40.055904,123.019913 41.510744,123.236483 42.977424,123.381831 C44.441144,123.532994 45.912264,123.615843 45.912264,123.615843 C45.968504,123.620203 46.009944,123.666715 46.006984,123.721948 C46.004024,123.77718 45.956664,123.819331 45.900424,123.816424 C45.900424,123.816424 44.424864,123.742297 42.953744,123.599855 C41.484104,123.467587 40.021864,123.259738 40.021864,123.259738 C39.953784,123.251017 39.906424,123.189971 39.915304,123.12311 C39.924184,123.057703 39.986344,123.011192 40.054424,123.019913 L40.055904,123.019913 Z" id="Fill-67"></path>
                        <path d="M50.328436,123.756686 C50.328436,123.756686 51.802516,123.76686 53.275116,123.723256 C54.747716,123.682558 56.218836,123.593895 56.218836,123.593895 C56.254356,123.592442 56.285436,123.617151 56.286916,123.653488 C56.289876,123.686919 56.261756,123.717442 56.227716,123.720349 C56.227716,123.720349 54.755116,123.819186 53.281036,123.868605 C51.805476,123.923837 50.328436,123.925291 50.328436,123.925291 C50.281076,123.925291 50.242596,123.888953 50.242596,123.842442 C50.241116,123.794477 50.279596,123.75814 50.326956,123.756686 L50.328436,123.756686 Z" id="Fill-69"></path>
                        <path d="M60.625684,123.237209 L63.554604,122.897093 C65.012404,122.686337 66.471684,122.477035 66.471684,122.477035 C66.486484,122.475581 66.499804,122.482849 66.502764,122.497384 C66.505724,122.511919 66.495364,122.526453 66.480564,122.52936 L63.563484,122.968314 C62.099764,123.15 60.636044,123.330233 60.636044,123.330233 C60.609404,123.334593 60.585724,123.317151 60.582764,123.289535 C60.579804,123.264826 60.597564,123.240116 60.624204,123.237209 L60.625684,123.237209 Z" id="Fill-71"></path>
                        <path d="M70.833836,121.692878 L73.718356,121.048983 L70.839756,121.71468 C70.833836,121.716134 70.827916,121.711773 70.826436,121.705959 C70.824956,121.700145 70.827916,121.694331 70.833836,121.692878" id="Fill-73"></path>
                    </g>
                    <path d="M156.835782,25.0090652 C156.965715,24.7094888 141,34.4687659 141,34.4687659 L145.147641,61 L152.978666,41.1530641 L173.604455,37.2729737 L203,10 L156.835782,25.0090652 Z" id="Fill-76" fill="#D8F4FF"></path>
                    <polygon id="Fill-78" fill="#C9F0FF" points="203 10 145 61 152.851011 41.1530641"></polygon>
                    <polygon id="Fill-80" fill="#E3F7FF" points="204 9.25662033 127 26.3077666 141.624492 34.8857134 204 9.25662033 200.907716 11.8834024 152.851011 41.1530641 178.547773 57"></polygon>
                </g>
            </g>
        </g>
    </g>
</svg>